<svg width="90" height="13" viewBox="0 0 90 13" fill="none" xmlns="http://www.w3.org/2000/svg">
<path d="M13 6.5C13 9.81371 10.3137 12.5 7 12.5C3.68629 12.5 1 9.81371 1 6.5C1 3.18629 3.68629 0.5 7 0.5C10.3137 0.5 13 3.18629 13 6.5ZM32 6.5C32 9.81371 29.3137 12.5 26 12.5C22.6863 12.5 20 9.81371 20 6.5C20 3.18629 22.6863 0.5 26 0.5C29.3137 0.5 32 3.18629 32 6.5ZM51 6.5C51 9.81371 48.3137 12.5 45 12.5C41.6863 12.5 39 9.81371 39 6.5C39 3.18629 41.6863 0.5 45 0.5C48.3137 0.5 51 3.18629 51 6.5ZM70 6.5C70 9.81371 67.3137 12.5 64 12.5C60.6863 12.5 58 9.81371 58 6.5C58 3.18629 60.6863 0.5 64 0.5C67.3137 0.5 70 3.18629 70 6.5ZM89 6.5C89 9.81371 86.3137 12.5 83 12.5C79.6863 12.5 77 9.81371 77 6.5C77 3.18629 79.6863 0.5 83 0.5C86.3137 0.5 89 3.18629 89 6.5Z" fill="#E5B8F4" stroke="#141414"/>
</svg>
