<svg width="34" height="34" viewBox="0 0 34 34" fill="none" xmlns="http://www.w3.org/2000/svg">
<g clip-path="url(#clip0_785_598)">
<path d="M13.3075 0.398378C10.3856 1.03588 7.30435 2.76244 5.04653 5.04682C-1.59409 11.6874 -1.64722 22.2859 4.91372 28.8203C8.15435 32.0343 11.7137 33.6812 16.0434 33.9203C23.7997 34.3453 30.9184 29.4046 33.2825 21.914C34.1059 19.2843 34.1059 14.7156 33.2825 12.0859C30.5997 3.639 21.9137 -1.461 13.3075 0.398378ZM27.2262 9.96088L27.8903 10.5984V16.9999V23.4015L27.2262 24.039L26.5887 24.7031H16.9997H7.4106L6.7731 24.039L6.10903 23.4015V16.9999V10.5984L6.7731 9.96088L7.4106 9.29681H16.9997H26.5887L27.2262 9.96088Z" fill="black"/>
<path d="M9.98722 11.3687C10.12 11.5015 11.7403 12.8296 13.6263 14.3171L16.9997 17.0265L20.3997 14.3171C22.2591 12.8296 23.8794 11.5015 24.0122 11.3687C24.1716 11.2624 21.0107 11.1562 16.9997 11.1562C12.9888 11.1562 9.82784 11.2624 9.98722 11.3687Z" fill="black"/>
<path d="M7.75625 17.2922L7.83594 22.7109L16.9469 22.7906C24.1984 22.8437 26.0844 22.7906 26.1641 22.4984C26.2438 22.3125 26.2703 19.8687 26.2438 17.0531L26.1641 11.9531L21.8078 15.4062C19.4172 17.2922 17.2391 18.8594 16.9734 18.8594C16.7344 18.8594 14.9813 17.6375 13.1219 16.1234C11.2359 14.6094 9.24375 13.0422 8.68594 12.6437L7.70312 11.8734L7.75625 17.2922Z" fill="black"/>
</g>
<defs>
<clipPath id="clip0_785_598">
<rect width="34" height="34" fill="white"/>
</clipPath>
</defs>
</svg>
