<svg width="34" height="33" viewBox="0 0 34 33" fill="none" xmlns="http://www.w3.org/2000/svg">
<g clip-path="url(#clip0_785_591)">
<path d="M13.2808 0.412481C7.06515 1.70154 1.69953 6.96092 0.397965 13.0195C-2.12547 24.7242 8.52609 35.0625 20.5855 32.6133C25.3933 31.6336 29.8558 28.282 32.087 23.9765C34.6105 19.0523 34.6105 13.9476 32.087 9.02342C28.6605 2.39764 20.8777 -1.18596 13.2808 0.412481ZM23.7198 7.70858C26.323 8.94608 26.9339 10.957 26.7745 17.5312C26.6683 21.3469 26.5886 21.9398 26.0573 23.0484C24.8089 25.5492 22.5511 26.168 15.6448 25.9875C12.0323 25.8844 11.3683 25.807 10.2527 25.2914C7.70265 24.0797 7.03859 21.914 7.22453 15.2109C7.30422 11.6789 7.3839 11.0601 7.94171 9.97733C8.6589 8.53358 9.98703 7.57967 11.7136 7.21873C12.3511 7.08982 15.0339 7.01248 17.6636 7.03826C22.073 7.08982 22.5511 7.14139 23.7198 7.70858Z" fill="#141414"/>
<path d="M11.1828 9.22969C10.6781 9.46172 10.0141 10.0031 9.72188 10.3898C9.19063 11.0859 9.16406 11.4727 9.16406 16.5C9.16406 21.5273 9.19063 21.9141 9.72188 22.6102C10.8109 24.0539 11.5813 24.2344 17 24.2344C22.4188 24.2344 23.1891 24.0539 24.2781 22.6102C24.8094 21.9141 24.8359 21.5273 24.8359 16.5C24.8359 11.4727 24.8094 11.0859 24.2781 10.3898C23.1891 8.94609 22.4188 8.76563 17 8.76563C12.8563 8.76563 11.9531 8.84297 11.1828 9.22969ZM23.1094 10.6992C23.2953 10.9055 23.375 11.3438 23.2688 11.7047C23.0563 12.5555 22.1531 12.8133 21.4891 12.2203C20.8781 11.6789 20.8516 11.2664 21.4094 10.725C21.9406 10.2094 22.6844 10.2094 23.1094 10.6992ZM18.8063 11.9883C23.0563 13.7156 23.0563 19.2844 18.8063 21.0117C17.5578 21.5016 16.4422 21.5016 15.1938 21.0117C11.0234 19.3102 10.9172 13.9219 15.0078 12.0914C16.3094 11.4984 17.5047 11.4727 18.8063 11.9883Z" fill="#141414"/>
<path d="M15.3524 13.8187C13.3071 14.8758 13.3602 18.1758 15.4055 19.207C17.6368 20.3156 20.1868 18.8719 20.1868 16.5C20.1868 14.1281 17.5571 12.6586 15.3524 13.8187Z" fill="#141414"/>
</g>
<defs>
<clipPath id="clip0_785_591">
<rect width="34" height="33" fill="white"/>
</clipPath>
</defs>
</svg>
