<svg width="34" height="34" viewBox="0 0 34 34" fill="none" xmlns="http://www.w3.org/2000/svg">
<g clip-path="url(#clip0_785_603)">
<path d="M13.2808 0.424988C7.06515 1.75311 1.69953 7.17186 0.397965 13.414C-2.12547 25.4734 8.52609 36.125 20.5855 33.6015C25.3933 32.5922 29.8558 29.139 32.087 24.7031C34.6105 19.6297 34.6105 14.3703 32.087 9.29686C28.6605 2.4703 20.8777 -1.22189 13.2808 0.424988ZM21.5683 7.49061C24.5698 8.87186 26.748 11.714 27.3589 15.0875C28.1292 19.364 25.7386 23.9062 21.6745 25.8984C19.4964 26.9609 16.6542 27.1203 14.1308 26.3234L12.3245 25.739L9.74796 26.3765C8.34015 26.7484 7.1714 26.9609 7.1714 26.8547C7.1714 26.7484 7.46359 25.6328 7.83546 24.3844L8.49953 22.0734L7.8089 20.0015C7.25109 18.3281 7.14484 17.6109 7.25109 16.2031C7.56984 11.9797 9.96047 8.76561 14.0245 7.1453C15.8839 6.37499 19.523 6.56092 21.5683 7.49061Z" fill="black"/>
<path d="M15.3256 8.49998C12.935 9.11092 10.8897 10.8109 9.77407 13.1484C8.7647 15.3265 8.71157 18.0625 9.69438 20.1609C10.385 21.6219 10.385 21.7547 9.66782 24.225C9.56157 24.6234 9.66782 24.6234 11.0491 24.2781C12.4834 23.8797 12.6163 23.9062 14.0506 24.4906C19.6819 26.8015 25.7647 22.6844 25.7647 16.575C25.7647 13.5469 23.8256 10.4656 21.0897 9.16405C19.4694 8.39373 16.9194 8.10155 15.3256 8.49998ZM15.1397 13.2015C15.6709 14.4234 15.6975 14.5297 15.2725 15.3C14.8475 16.0969 14.8475 16.1765 15.2725 16.8406C15.8834 17.7703 17.7694 19.125 18.46 19.125C18.7522 19.125 19.1506 18.8859 19.3366 18.5937C19.735 17.9297 20.2131 17.9297 21.5413 18.6203C22.4975 19.0984 22.6038 19.2312 22.4444 19.8687C21.8069 22.525 17.3975 21.7547 14.3959 18.4609C12.2975 16.1765 11.7928 14.6094 12.6163 13.0156C13.3866 11.5015 14.4225 11.5812 15.1397 13.2015Z" fill="black"/>
</g>
<defs>
<clipPath id="clip0_785_603">
<rect width="34" height="34" fill="white"/>
</clipPath>
</defs>
</svg>
