<svg width="151" height="151" viewBox="0 0 151 151" fill="none" xmlns="http://www.w3.org/2000/svg">
<path d="M148.756 75.5C149.995 75.5 151.004 74.4947 150.967 73.2559C150.503 57.6602 145.217 42.5701 135.808 30.0777C125.949 16.987 112.097 7.45986 96.3462 2.93493C80.5949 -1.58999 63.7991 -0.86695 48.495 4.99487C33.1909 10.8567 20.2096 21.539 11.5116 35.4285C2.81353 49.3181 -1.12899 65.6607 0.279392 81.9884C1.68777 98.316 8.37058 113.742 19.3186 125.937C30.2667 138.132 44.8854 146.434 60.9672 149.588C76.314 152.598 92.1979 150.766 106.431 144.373C107.561 143.866 108.026 142.52 107.485 141.405C106.943 140.29 105.602 139.828 104.47 140.334C91.1147 146.302 76.2219 148.007 61.8312 145.184C46.7054 142.217 32.9557 134.409 22.6585 122.939C12.3613 111.469 6.07574 96.9597 4.75108 81.6026C3.42643 66.2456 7.13458 50.8746 15.3156 37.8107C23.4965 24.7468 35.7061 14.6996 50.1004 9.18623C64.4947 3.67289 80.2921 2.99283 95.1069 7.24876C109.922 11.5047 122.95 20.4655 132.223 32.778C141.046 44.4921 146.014 58.6348 146.476 73.2559C146.515 74.4947 147.517 75.5 148.756 75.5Z" fill="#FAFAFA"/>
<path d="M148.756 75.5C149.995 75.5 151.004 74.4947 150.967 73.2559C150.692 64.0058 148.718 54.8786 145.138 46.3312C141.269 37.0933 135.6 28.7177 128.462 21.692C121.324 14.6663 112.859 9.13103 103.561 5.40854C94.2633 1.68605 84.3175 -0.149263 74.3033 0.00949754C64.289 0.168258 54.4064 2.31792 45.2311 6.33327C36.0557 10.3486 27.7709 16.1494 20.8593 23.3979C13.9476 30.6463 8.54723 39.1974 4.9726 48.5533C1.66514 57.2099 -0.0181086 66.3953 0.000222136 75.6495C0.00267717 76.8889 1.04225 77.8614 2.28104 77.8221C3.51982 77.7829 4.4885 76.7466 4.48837 75.5072C4.48749 66.8483 6.07035 58.2556 9.16529 50.1552C12.5274 41.3555 17.6068 33.3127 24.1076 26.4952C30.6083 19.6777 38.4006 14.2217 47.0305 10.4451C55.6604 6.66842 64.9555 4.64655 74.3744 4.49723C83.7934 4.34791 93.1479 6.07411 101.893 9.57531C110.638 13.0765 118.6 18.2827 125.313 24.8907C132.027 31.4988 137.359 39.3765 140.998 48.0652C144.348 56.0634 146.203 64.6014 146.476 73.2559C146.515 74.4947 147.517 75.5 148.756 75.5Z" fill="#A8E637"/>
<path d="M45.8513 60.324C45.8513 60.996 45.6893 61.626 45.3653 62.214C45.0533 62.802 44.5553 63.276 43.8713 63.636C43.1993 63.996 42.3473 64.176 41.3153 64.176H39.2093V69H36.6893V56.436H41.3153C42.2873 56.436 43.1153 56.604 43.7993 56.94C44.4833 57.276 44.9933 57.738 45.3293 58.326C45.6773 58.914 45.8513 59.58 45.8513 60.324ZM41.2073 62.142C41.9033 62.142 42.4193 61.986 42.7553 61.674C43.0913 61.35 43.2593 60.9 43.2593 60.324C43.2593 59.1 42.5753 58.488 41.2073 58.488H39.2093V62.142H41.2073Z" fill="#A8E637"/>
<path d="M46.9925 63.978C46.9925 62.97 47.1905 62.076 47.5865 61.296C47.9945 60.516 48.5405 59.916 49.2245 59.496C49.9205 59.076 50.6945 58.866 51.5465 58.866C52.2905 58.866 52.9385 59.016 53.4905 59.316C54.0545 59.616 54.5045 59.994 54.8405 60.45V59.028H57.3785V69H54.8405V67.542C54.5165 68.01 54.0665 68.4 53.4905 68.712C52.9265 69.012 52.2725 69.162 51.5285 69.162C50.6885 69.162 49.9205 68.946 49.2245 68.514C48.5405 68.082 47.9945 67.476 47.5865 66.696C47.1905 65.904 46.9925 64.998 46.9925 63.978ZM54.8405 64.014C54.8405 63.402 54.7205 62.88 54.4805 62.448C54.2405 62.004 53.9165 61.668 53.5085 61.44C53.1005 61.2 52.6625 61.08 52.1945 61.08C51.7265 61.08 51.2945 61.194 50.8985 61.422C50.5025 61.65 50.1785 61.986 49.9265 62.43C49.6865 62.862 49.5665 63.378 49.5665 63.978C49.5665 64.578 49.6865 65.106 49.9265 65.562C50.1785 66.006 50.5025 66.348 50.8985 66.588C51.3065 66.828 51.7385 66.948 52.1945 66.948C52.6625 66.948 53.1005 66.834 53.5085 66.606C53.9165 66.366 54.2405 66.03 54.4805 65.598C54.7205 65.154 54.8405 64.626 54.8405 64.014Z" fill="#A8E637"/>
<path d="M62.3597 55.68V69H59.8397V55.68H62.3597Z" fill="#A8E637"/>
<path d="M64.2015 63.978C64.2015 62.97 64.3995 62.076 64.7955 61.296C65.2035 60.516 65.7495 59.916 66.4335 59.496C67.1295 59.076 67.9035 58.866 68.7555 58.866C69.4995 58.866 70.1475 59.016 70.6995 59.316C71.2635 59.616 71.7135 59.994 72.0495 60.45V59.028H74.5875V69H72.0495V67.542C71.7255 68.01 71.2755 68.4 70.6995 68.712C70.1355 69.012 69.4815 69.162 68.7375 69.162C67.8975 69.162 67.1295 68.946 66.4335 68.514C65.7495 68.082 65.2035 67.476 64.7955 66.696C64.3995 65.904 64.2015 64.998 64.2015 63.978ZM72.0495 64.014C72.0495 63.402 71.9295 62.88 71.6895 62.448C71.4495 62.004 71.1255 61.668 70.7175 61.44C70.3095 61.2 69.8715 61.08 69.4035 61.08C68.9355 61.08 68.5035 61.194 68.1075 61.422C67.7115 61.65 67.3875 61.986 67.1355 62.43C66.8955 62.862 66.7755 63.378 66.7755 63.978C66.7755 64.578 66.8955 65.106 67.1355 65.562C67.3875 66.006 67.7115 66.348 68.1075 66.588C68.5155 66.828 68.9475 66.948 69.4035 66.948C69.8715 66.948 70.3095 66.834 70.7175 66.606C71.1255 66.366 71.4495 66.03 71.6895 65.598C71.9295 65.154 72.0495 64.626 72.0495 64.014Z" fill="#A8E637"/>
<path d="M81.2067 66.678L83.7267 59.028H86.4087L82.7187 69H79.6587L75.9867 59.028H78.6867L81.2067 66.678Z" fill="#A8E637"/>
<path d="M90.3441 60.576C90.6681 60.048 91.0881 59.634 91.6041 59.334C92.1321 59.034 92.7321 58.884 93.4041 58.884V61.53H92.7381C91.9461 61.53 91.3461 61.716 90.9381 62.088C90.5421 62.46 90.3441 63.108 90.3441 64.032V69H87.8241V59.028H90.3441V60.576Z" fill="#A8E637"/>
<path d="M94.4535 63.978C94.4535 62.97 94.6515 62.076 95.0475 61.296C95.4555 60.516 96.0014 59.916 96.6854 59.496C97.3814 59.076 98.1555 58.866 99.0075 58.866C99.7515 58.866 100.399 59.016 100.951 59.316C101.515 59.616 101.965 59.994 102.301 60.45V59.028H104.839V69H102.301V67.542C101.977 68.01 101.527 68.4 100.951 68.712C100.387 69.012 99.7334 69.162 98.9894 69.162C98.1494 69.162 97.3814 68.946 96.6854 68.514C96.0014 68.082 95.4555 67.476 95.0475 66.696C94.6515 65.904 94.4535 64.998 94.4535 63.978ZM102.301 64.014C102.301 63.402 102.181 62.88 101.941 62.448C101.701 62.004 101.377 61.668 100.969 61.44C100.561 61.2 100.123 61.08 99.6554 61.08C99.1874 61.08 98.7555 61.194 98.3595 61.422C97.9635 61.65 97.6395 61.986 97.3875 62.43C97.1475 62.862 97.0275 63.378 97.0275 63.978C97.0275 64.578 97.1475 65.106 97.3875 65.562C97.6395 66.006 97.9635 66.348 98.3595 66.588C98.7675 66.828 99.1994 66.948 99.6554 66.948C100.123 66.948 100.561 66.834 100.969 66.606C101.377 66.366 101.701 66.03 101.941 65.598C102.181 65.154 102.301 64.626 102.301 64.014Z" fill="#A8E637"/>
<path d="M114.969 61.512V63.636H107.337V61.512H114.969Z" fill="#A8E637"/>
<path d="M48.1878 91.014C48.1878 89.982 48.3978 89.082 48.8178 88.314C49.2378 87.534 49.8198 86.934 50.5638 86.514C51.3078 86.082 52.1598 85.866 53.1198 85.866C54.3558 85.866 55.3758 86.178 56.1798 86.802C56.9958 87.414 57.5418 88.278 57.8178 89.394H55.0998C54.9558 88.962 54.7098 88.626 54.3618 88.386C54.0258 88.134 53.6058 88.008 53.1018 88.008C52.3818 88.008 51.8118 88.272 51.3918 88.8C50.9718 89.316 50.7618 90.054 50.7618 91.014C50.7618 91.962 50.9718 92.7 51.3918 93.228C51.8118 93.744 52.3818 94.002 53.1018 94.002C54.1218 94.002 54.7878 93.546 55.0998 92.634H57.8178C57.5418 93.714 56.9958 94.572 56.1798 95.208C55.3638 95.844 54.3438 96.162 53.1198 96.162C52.1598 96.162 51.3078 95.952 50.5638 95.532C49.8198 95.1 49.2378 94.5 48.8178 93.732C48.3978 92.952 48.1878 92.046 48.1878 91.014Z" fill="#A8E637"/>
<path d="M65.28 85.884C66.036 85.884 66.708 86.052 67.296 86.388C67.884 86.712 68.3399 87.198 68.6639 87.846C68.9999 88.482 69.168 89.25 69.168 90.15V96H66.6479V90.492C66.6479 89.7 66.45 89.094 66.054 88.674C65.658 88.242 65.118 88.026 64.434 88.026C63.738 88.026 63.186 88.242 62.778 88.674C62.382 89.094 62.184 89.7 62.184 90.492V96H59.664V82.68H62.184V87.27C62.508 86.838 62.9399 86.502 63.4799 86.262C64.0199 86.01 64.62 85.884 65.28 85.884Z" fill="#A8E637"/>
<path d="M70.9163 90.978C70.9163 89.97 71.1143 89.076 71.5103 88.296C71.9183 87.516 72.4643 86.916 73.1483 86.496C73.8443 86.076 74.6183 85.866 75.4703 85.866C76.2143 85.866 76.8623 86.016 77.4143 86.316C77.9783 86.616 78.4283 86.994 78.7643 87.45V86.028H81.3023V96H78.7643V94.542C78.4403 95.01 77.9903 95.4 77.4143 95.712C76.8503 96.012 76.1963 96.162 75.4523 96.162C74.6123 96.162 73.8443 95.946 73.1483 95.514C72.4643 95.082 71.9183 94.476 71.5103 93.696C71.1143 92.904 70.9163 91.998 70.9163 90.978ZM78.7643 91.014C78.7643 90.402 78.6443 89.88 78.4043 89.448C78.1643 89.004 77.8403 88.668 77.4323 88.44C77.0243 88.2 76.5863 88.08 76.1183 88.08C75.6503 88.08 75.2183 88.194 74.8223 88.422C74.4263 88.65 74.1023 88.986 73.8503 89.43C73.6103 89.862 73.4903 90.378 73.4903 90.978C73.4903 91.578 73.6103 92.106 73.8503 92.562C74.1023 93.006 74.4263 93.348 74.8223 93.588C75.2303 93.828 75.6623 93.948 76.1183 93.948C76.5863 93.948 77.0243 93.834 77.4323 93.606C77.8403 93.366 78.1643 93.03 78.4043 92.598C78.6443 92.154 78.7643 91.626 78.7643 91.014Z" fill="#A8E637"/>
<path d="M87.9216 93.678L90.4416 86.028H93.1236L89.4336 96H86.3736L82.7016 86.028H85.4016L87.9216 93.678Z" fill="#A8E637"/>
<path d="M103.809 90.798C103.809 91.158 103.785 91.482 103.737 91.77H96.447C96.507 92.49 96.7589 93.054 97.2029 93.462C97.6469 93.87 98.1929 94.074 98.841 94.074C99.7769 94.074 100.443 93.672 100.839 92.868H103.557C103.269 93.828 102.717 94.62 101.901 95.244C101.085 95.856 100.083 96.162 98.895 96.162C97.935 96.162 97.0709 95.952 96.3029 95.532C95.5469 95.1 94.953 94.494 94.521 93.714C94.101 92.934 93.891 92.034 93.891 91.014C93.891 89.982 94.101 89.076 94.521 88.296C94.941 87.516 95.529 86.916 96.285 86.496C97.041 86.076 97.911 85.866 98.895 85.866C99.843 85.866 100.689 86.07 101.433 86.478C102.189 86.886 102.771 87.468 103.179 88.224C103.599 88.968 103.809 89.826 103.809 90.798ZM101.199 90.078C101.187 89.43 100.953 88.914 100.497 88.53C100.041 88.134 99.483 87.936 98.823 87.936C98.199 87.936 97.671 88.128 97.239 88.512C96.819 88.884 96.561 89.406 96.465 90.078H101.199Z" fill="#A8E637"/>
</svg>
