<svg width="151" height="151" viewBox="0 0 151 151" fill="none" xmlns="http://www.w3.org/2000/svg">
<path d="M30.0741 82.126C28.8981 82.126 27.8181 81.85 26.8341 81.298C25.8501 80.746 25.0701 79.984 24.4941 79.012C23.9181 78.028 23.6301 76.918 23.6301 75.682C23.6301 74.458 23.9181 73.36 24.4941 72.388C25.0701 71.404 25.8501 70.636 26.8341 70.084C27.8181 69.532 28.8981 69.256 30.0741 69.256C31.2621 69.256 32.3421 69.532 33.3141 70.084C34.2981 70.636 35.0721 71.404 35.6361 72.388C36.2121 73.36 36.5001 74.458 36.5001 75.682C36.5001 76.918 36.2121 78.028 35.6361 79.012C35.0721 79.984 34.2981 80.746 33.3141 81.298C32.3301 81.85 31.2501 82.126 30.0741 82.126ZM30.0741 79.876C30.8301 79.876 31.4961 79.708 32.0721 79.372C32.6481 79.024 33.0981 78.532 33.4221 77.896C33.7461 77.26 33.9081 76.522 33.9081 75.682C33.9081 74.842 33.7461 74.11 33.4221 73.486C33.0981 72.85 32.6481 72.364 32.0721 72.028C31.4961 71.692 30.8301 71.524 30.0741 71.524C29.3181 71.524 28.6461 71.692 28.0581 72.028C27.4821 72.364 27.0321 72.85 26.7081 73.486C26.3841 74.11 26.2221 74.842 26.2221 75.682C26.2221 76.522 26.3841 77.26 26.7081 77.896C27.0321 78.532 27.4821 79.024 28.0581 79.372C28.6461 79.708 29.3181 79.876 30.0741 79.876Z" fill="#A8E637"/>
<path d="M41.3089 74.098V78.922C41.3089 79.258 41.3869 79.504 41.5429 79.66C41.7109 79.804 41.9869 79.876 42.3709 79.876H43.5409V82H41.9569C39.8329 82 38.7709 80.968 38.7709 78.904V74.098H37.5829V72.028H38.7709V69.562H41.3089V72.028H43.5409V74.098H41.3089Z" fill="#A8E637"/>
<path d="M46.6314 70.84C46.1874 70.84 45.8154 70.702 45.5154 70.426C45.2274 70.138 45.0834 69.784 45.0834 69.364C45.0834 68.944 45.2274 68.596 45.5154 68.32C45.8154 68.032 46.1874 67.888 46.6314 67.888C47.0754 67.888 47.4414 68.032 47.7294 68.32C48.0294 68.596 48.1794 68.944 48.1794 69.364C48.1794 69.784 48.0294 70.138 47.7294 70.426C47.4414 70.702 47.0754 70.84 46.6314 70.84ZM47.8734 72.028V82H45.3534V72.028H47.8734Z" fill="#A8E637"/>
<path d="M62.7472 71.884C63.9712 71.884 64.9552 72.262 65.6992 73.018C66.4552 73.762 66.8332 74.806 66.8332 76.15V82H64.3132V76.492C64.3132 75.712 64.1152 75.118 63.7192 74.71C63.3232 74.29 62.7832 74.08 62.0992 74.08C61.4152 74.08 60.8692 74.29 60.4612 74.71C60.0652 75.118 59.8672 75.712 59.8672 76.492V82H57.3472V76.492C57.3472 75.712 57.1492 75.118 56.7532 74.71C56.3572 74.29 55.8172 74.08 55.1332 74.08C54.4372 74.08 53.8852 74.29 53.4772 74.71C53.0812 75.118 52.8832 75.712 52.8832 76.492V82H50.3632V72.028H52.8832V73.234C53.2072 72.814 53.6212 72.484 54.1252 72.244C54.6412 72.004 55.2052 71.884 55.8172 71.884C56.5972 71.884 57.2932 72.052 57.9052 72.388C58.5172 72.712 58.9912 73.18 59.3272 73.792C59.6512 73.216 60.1192 72.754 60.7312 72.406C61.3552 72.058 62.0272 71.884 62.7472 71.884Z" fill="#A8E637"/>
<path d="M70.5025 70.84C70.0585 70.84 69.6865 70.702 69.3865 70.426C69.0985 70.138 68.9545 69.784 68.9545 69.364C68.9545 68.944 69.0985 68.596 69.3865 68.32C69.6865 68.032 70.0585 67.888 70.5025 67.888C70.9465 67.888 71.3125 68.032 71.6005 68.32C71.9005 68.596 72.0505 68.944 72.0505 69.364C72.0505 69.784 71.9005 70.138 71.6005 70.426C71.3125 70.702 70.9465 70.84 70.5025 70.84ZM71.7445 72.028V82H69.2245V72.028H71.7445Z" fill="#A8E637"/>
<path d="M76.5383 79.93H80.9843V82H73.6763V79.966L78.0323 74.098H73.6943V72.028H80.9303V74.062L76.5383 79.93Z" fill="#A8E637"/>
<path d="M82.2874 76.978C82.2874 75.97 82.4854 75.076 82.8814 74.296C83.2894 73.516 83.8354 72.916 84.5194 72.496C85.2154 72.076 85.9894 71.866 86.8414 71.866C87.5854 71.866 88.2334 72.016 88.7854 72.316C89.3494 72.616 89.7994 72.994 90.1354 73.45V72.028H92.6734V82H90.1354V80.542C89.8114 81.01 89.3614 81.4 88.7854 81.712C88.2214 82.012 87.5674 82.162 86.8234 82.162C85.9834 82.162 85.2154 81.946 84.5194 81.514C83.8354 81.082 83.2894 80.476 82.8814 79.696C82.4854 78.904 82.2874 77.998 82.2874 76.978ZM90.1354 77.014C90.1354 76.402 90.0154 75.88 89.7754 75.448C89.5354 75.004 89.2114 74.668 88.8034 74.44C88.3954 74.2 87.9574 74.08 87.4894 74.08C87.0214 74.08 86.5894 74.194 86.1934 74.422C85.7974 74.65 85.4734 74.986 85.2214 75.43C84.9814 75.862 84.8614 76.378 84.8614 76.978C84.8614 77.578 84.9814 78.106 85.2214 78.562C85.4734 79.006 85.7974 79.348 86.1934 79.588C86.6014 79.828 87.0334 79.948 87.4894 79.948C87.9574 79.948 88.3954 79.834 88.8034 79.606C89.2114 79.366 89.5354 79.03 89.7754 78.598C90.0154 78.154 90.1354 77.626 90.1354 77.014Z" fill="#A8E637"/>
<path d="M99.4007 80.002C100.421 80.002 101.087 79.546 101.399 78.634H104.117C103.865 79.606 103.397 80.398 102.713 81.01C102.041 81.622 101.195 81.988 100.175 82.108V82.81C100.835 82.81 101.387 82.978 101.831 83.314C102.287 83.65 102.515 84.136 102.515 84.772C102.515 85.42 102.281 85.918 101.813 86.266C101.357 86.614 100.793 86.788 100.121 86.788H97.5647V85.312H99.7067C99.9947 85.312 100.211 85.27 100.355 85.186C100.511 85.102 100.589 84.952 100.589 84.736C100.589 84.52 100.511 84.37 100.355 84.286C100.211 84.214 99.9947 84.178 99.7067 84.178H98.5907V82.108C97.7747 81.988 97.0547 81.706 96.4307 81.262C95.8187 80.806 95.3387 80.218 94.9907 79.498C94.6547 78.766 94.4867 77.938 94.4867 77.014C94.4867 75.982 94.6967 75.082 95.1167 74.314C95.5367 73.534 96.1187 72.934 96.8627 72.514C97.6067 72.082 98.4587 71.866 99.4187 71.866C100.655 71.866 101.675 72.178 102.479 72.802C103.295 73.414 103.841 74.278 104.117 75.394H101.399C101.255 74.962 101.009 74.626 100.661 74.386C100.325 74.134 99.9047 74.008 99.4007 74.008C98.6807 74.008 98.1107 74.272 97.6907 74.8C97.2707 75.316 97.0607 76.054 97.0607 77.014C97.0607 77.962 97.2707 78.7 97.6907 79.228C98.1107 79.744 98.6807 80.002 99.4007 80.002Z" fill="#A8E637"/>
<path d="M105.315 76.978C105.315 75.97 105.513 75.076 105.909 74.296C106.317 73.516 106.863 72.916 107.547 72.496C108.243 72.076 109.017 71.866 109.869 71.866C110.613 71.866 111.261 72.016 111.813 72.316C112.377 72.616 112.827 72.994 113.163 73.45V72.028H115.701V82H113.163V80.542C112.839 81.01 112.389 81.4 111.813 81.712C111.249 82.012 110.595 82.162 109.851 82.162C109.011 82.162 108.243 81.946 107.547 81.514C106.863 81.082 106.317 80.476 105.909 79.696C105.513 78.904 105.315 77.998 105.315 76.978ZM113.163 77.014C113.163 76.402 113.043 75.88 112.803 75.448C112.563 75.004 112.239 74.668 111.831 74.44C111.423 74.2 110.985 74.08 110.517 74.08C110.049 74.08 109.617 74.194 109.221 74.422C108.825 74.65 108.501 74.986 108.249 75.43C108.009 75.862 107.889 76.378 107.889 76.978C107.889 77.578 108.009 78.106 108.249 78.562C108.501 79.006 108.825 79.348 109.221 79.588C109.629 79.828 110.061 79.948 110.517 79.948C110.985 79.948 111.423 79.834 111.831 79.606C112.239 79.366 112.563 79.03 112.803 78.598C113.043 78.154 113.163 77.626 113.163 77.014ZM107.619 71.074C107.727 70.282 107.973 69.694 108.357 69.31C108.753 68.914 109.251 68.716 109.851 68.716C110.103 68.716 110.325 68.758 110.517 68.842C110.709 68.914 110.925 69.022 111.165 69.166C111.525 69.394 111.825 69.508 112.065 69.508C112.509 69.508 112.767 69.25 112.839 68.734H114.189C114.081 69.526 113.829 70.12 113.433 70.516C113.049 70.9 112.557 71.092 111.957 71.092C111.705 71.092 111.483 71.056 111.291 70.984C111.099 70.9 110.883 70.786 110.643 70.642C110.295 70.402 109.995 70.282 109.743 70.282C109.299 70.282 109.035 70.546 108.951 71.074H107.619Z" fill="#A8E637"/>
<path d="M122.59 82.162C121.63 82.162 120.766 81.952 119.998 81.532C119.23 81.1 118.624 80.494 118.18 79.714C117.748 78.934 117.532 78.034 117.532 77.014C117.532 75.994 117.754 75.094 118.198 74.314C118.654 73.534 119.272 72.934 120.052 72.514C120.832 72.082 121.702 71.866 122.662 71.866C123.622 71.866 124.492 72.082 125.272 72.514C126.052 72.934 126.664 73.534 127.108 74.314C127.564 75.094 127.792 75.994 127.792 77.014C127.792 78.034 127.558 78.934 127.09 79.714C126.634 80.494 126.01 81.1 125.218 81.532C124.438 81.952 123.562 82.162 122.59 82.162ZM122.59 79.966C123.046 79.966 123.472 79.858 123.868 79.642C124.276 79.414 124.6 79.078 124.84 78.634C125.08 78.19 125.2 77.65 125.2 77.014C125.2 76.066 124.948 75.34 124.444 74.836C123.952 74.32 123.346 74.062 122.626 74.062C121.906 74.062 121.3 74.32 120.808 74.836C120.328 75.34 120.088 76.066 120.088 77.014C120.088 77.962 120.322 78.694 120.79 79.21C121.27 79.714 121.87 79.966 122.59 79.966Z" fill="#A8E637"/>
<path d="M148.756 75.5C149.995 75.5 151.004 74.4947 150.967 73.2559C150.503 57.6602 145.217 42.5701 135.808 30.0777C125.949 16.987 112.097 7.45986 96.3462 2.93493C80.5949 -1.58999 63.7991 -0.86695 48.495 4.99487C33.1909 10.8567 20.2096 21.539 11.5116 35.4285C2.81353 49.3181 -1.12899 65.6607 0.279392 81.9884C1.68777 98.316 8.37058 113.742 19.3186 125.937C30.2667 138.132 44.8854 146.434 60.9672 149.588C76.314 152.598 92.1979 150.766 106.431 144.373C107.561 143.866 108.026 142.52 107.485 141.405C106.943 140.29 105.602 139.828 104.47 140.334C91.1147 146.302 76.2219 148.007 61.8312 145.184C46.7054 142.217 32.9557 134.409 22.6585 122.939C12.3613 111.469 6.07574 96.9597 4.75108 81.6026C3.42643 66.2456 7.13458 50.8746 15.3156 37.8107C23.4965 24.7468 35.7061 14.6996 50.1004 9.18623C64.4947 3.67289 80.2921 2.99283 95.1069 7.24876C109.922 11.5047 122.95 20.4655 132.223 32.778C141.046 44.4921 146.014 58.6348 146.476 73.2559C146.515 74.4947 147.517 75.5 148.756 75.5Z" fill="#FAFAFA"/>
<path d="M148.756 75.5C149.995 75.5 151.004 74.4947 150.967 73.2559C150.686 63.7983 148.629 54.4711 144.897 45.7619C140.87 36.3647 134.976 27.8833 127.574 20.8318C120.171 13.7804 111.413 8.30596 101.831 4.74039C92.951 1.4359 83.5346 -0.165198 74.0745 0.0134691C72.8353 0.0368731 71.8805 1.09274 71.9407 2.33068C72.0009 3.56863 73.0534 4.51965 74.2926 4.49857C83.1454 4.34801 91.9553 5.85437 100.266 8.94688C109.278 12.3005 117.515 17.4495 124.478 24.0817C131.441 30.714 136.984 38.6912 140.771 47.5298C144.264 55.6802 146.197 64.4063 146.476 73.2559C146.515 74.4947 147.517 75.5 148.756 75.5Z" fill="#A8E637"/>
</svg>
