<svg width="680" height="664" viewBox="0 0 680 664" fill="none" xmlns="http://www.w3.org/2000/svg">
<g clip-path="url(#clip0_783_518)">
<path d="M209.986 487.094H124.808C122.66 487.094 120.913 485.347 120.913 483.2C120.913 481.052 122.66 479.305 124.808 479.305H209.986C212.133 479.305 213.88 481.052 213.88 483.2C213.88 485.347 212.133 487.094 209.986 487.094H209.986V487.094Z" fill="#A8E637"/>
<path d="M57.8623 507.942C57.8623 508.642 58.4241 509.204 59.1238 509.204H275.67C276.37 509.204 276.931 508.642 276.931 507.942C276.931 507.243 276.37 506.681 275.67 506.681H59.1238C58.4241 506.681 57.8623 507.243 57.8623 507.942Z" fill="#3F3D56"/>
<path d="M514.741 253.777C552.794 253.777 583.641 222.928 583.641 184.874C583.641 146.821 552.794 115.972 514.741 115.972C476.689 115.972 445.842 146.821 445.842 184.874C445.842 222.928 476.689 253.777 514.741 253.777Z" fill="#2D033B"/>
<path d="M0 595.009C0 595.709 0.561829 596.271 1.26146 596.271H554.886C555.586 596.271 556.147 595.709 556.147 595.009C556.147 594.31 555.586 593.748 554.886 593.748H1.26146C0.561829 593.748 0 594.31 0 595.009Z" fill="#3F3D56"/>
<path d="M8.00829 509.823L6.2373 507.882L179.084 350.152L241.357 378.069L308.604 262.744L363.853 236.111L415.043 321.431C442.68 249.88 511.99 175.021 595.041 99.0708L597.084 100.725C519.19 175.304 452.544 250.221 414.722 326.005L367.373 246.855C365.136 243.116 360.436 241.672 356.485 243.51L356.485 243.51C326.286 257.562 301.096 280.5 284.284 309.257L242.161 381.309L232.545 376.998C200.387 362.582 162.74 368.624 136.708 392.38L8.00829 509.823Z" fill="#3F3D56"/>
<path d="M598.938 113.431L596.314 113.613L592.079 104.436L582.599 102.51L582.23 99.9051L597.858 97.6841L598.938 113.431Z" fill="#3F3D56"/>
<path d="M329.323 169.585L338.614 133.865L374.81 132.124L385.64 181.363L329.323 169.585Z" fill="#FFB6B6"/>
<path opacity="0.1" d="M329.323 169.585L338.614 133.865L374.81 132.124L385.64 181.363L329.323 169.585Z" fill="black"/>
<path d="M353.141 153.855C377.27 153.855 396.83 134.294 396.83 110.164C396.83 86.0343 377.27 66.4732 353.141 66.4732C329.012 66.4732 309.452 86.0343 309.452 110.164C309.452 134.294 329.012 153.855 353.141 153.855Z" fill="#FFB6B6"/>
<path d="M377.246 119.412H377.246C377.246 119.412 360.649 86.5269 341.204 88.4256C321.758 90.3242 311.513 92.6332 311.513 92.6332C311.513 92.6332 305.741 67.0207 332.917 57.1689C332.917 57.1689 298.363 23.1057 339.503 6.39621C380.642 -10.3133 403.663 10.9976 403.663 10.9976C403.663 10.9976 434.114 41.3989 395.761 64.1211C395.761 64.1211 424.24 102.43 389.76 134.005C389.76 134.005 397.472 108.453 389.425 113.166C381.378 117.878 377.246 119.412 377.246 119.412V119.412L377.246 119.412L377.246 119.412Z" fill="#2F2E41"/>
<path d="M304.937 350.249L299.126 355.819L257.143 445.843L252.547 594.749H323.085L356.174 521.009L378.468 594.037H441.892L456.594 461.469L417.072 367.714L304.937 350.249Z" fill="#2F2E41"/>
<path d="M378.008 165.955H330.901L279.661 193.531L291.61 246.843C291.61 246.843 288.852 279.014 295.286 302.912C301.72 326.81 298.963 358.062 298.963 358.062L417.072 367.714L420.748 259.251L418.91 186.637L378.008 165.955V165.955V165.955Z" fill="#E6E6E6"/>
<path d="M287.474 193.99C287.474 193.99 258.981 194.909 254.385 213.293C249.79 231.676 246.113 326.351 246.113 326.351C246.113 326.351 248.871 382.529 279.662 355.819C310.453 329.108 307.695 248.221 307.695 248.221L287.474 193.99V193.99Z" fill="#E6E6E6"/>
<path d="M563.84 662.94H395.928C390.241 662.94 385.614 658.314 385.614 652.626V479.036C385.614 473.349 390.241 468.722 395.928 468.722H563.84C569.527 468.722 574.153 473.349 574.153 479.036V652.626C574.153 658.314 569.527 662.94 563.84 662.94Z" fill="white"/>
<path d="M563.84 664H395.927C389.656 664 384.554 658.898 384.554 652.626V479.036C384.554 472.765 389.656 467.662 395.927 467.662H563.84C570.111 467.662 575.213 472.765 575.213 479.036V652.626C575.213 658.898 570.111 664 563.84 664ZM395.927 469.782C390.825 469.782 386.674 473.934 386.674 479.036V652.626C386.674 657.729 390.825 661.88 395.927 661.88H563.84C568.942 661.88 573.093 657.729 573.093 652.626V479.036C573.093 473.934 568.942 469.782 563.84 469.782H395.927Z" fill="#3F3D56"/>
<path d="M486.51 617.336H472.671C470.986 617.336 469.615 616.278 469.615 614.977V555.391C469.615 554.09 470.986 553.032 472.671 553.032H486.51C488.195 553.032 489.566 554.09 489.566 555.391V614.977C489.566 616.278 488.195 617.336 486.51 617.336Z" fill="#6C63FF"/>
<path d="M440.756 582.221C439.395 582.221 438.287 583.076 438.287 584.127V614.911C438.287 615.961 439.395 616.817 440.756 616.817H454.595C455.957 616.817 457.064 615.961 457.064 614.911V584.127C457.064 583.076 455.957 582.221 454.595 582.221H440.756Z" fill="#6C63FF"/>
<path d="M518.425 617.336H504.586C502.901 617.336 501.53 616.278 501.53 614.977V517.326C501.53 516.025 502.901 514.967 504.586 514.967H518.425C520.11 514.967 521.481 516.025 521.481 517.326V614.977C521.481 616.278 520.11 617.336 518.425 617.336Z" fill="#6C63FF"/>
<path d="M220.611 189.293H204.802C202.877 189.293 201.312 188.085 201.312 186.599V118.534C201.312 117.048 202.877 115.84 204.802 115.84H220.611C222.535 115.84 224.101 117.048 224.101 118.534V186.599C224.101 188.085 222.535 189.293 220.611 189.293V189.293V189.293Z" fill="#A8E637"/>
<path d="M168.347 149.182C166.792 149.182 165.526 150.159 165.526 151.359V186.523C165.526 187.723 166.792 188.7 168.347 188.7H184.155C185.71 188.7 186.975 187.723 186.975 186.523V151.359C186.975 150.159 185.71 149.182 184.155 149.182H168.347Z" fill="#A8E637"/>
<path d="M257.067 189.293H241.258C239.333 189.293 237.768 188.085 237.768 186.599V75.0531C237.768 73.5673 239.333 72.3586 241.258 72.3586H257.067C258.991 72.3586 260.557 73.5673 260.557 75.0531V186.599C260.557 188.085 258.991 189.293 257.067 189.293V189.293V189.293Z" fill="#A8E637"/>
<path d="M454.142 493.979C462.33 493.195 467.968 482.13 466.736 469.259C466.315 464.111 464.666 459.138 461.929 454.758L460.351 440.191L460.593 440.118L464.559 371.048C465.482 354.988 459.125 339.208 446.877 328.779C439.592 322.576 431.819 319.435 426.821 327.273C418.528 340.279 429.27 393.893 436.325 424.374L439.06 456.947C437.202 461.769 436.526 466.965 437.088 472.102C438.318 484.968 445.954 494.763 454.142 493.979V493.979Z" fill="#FFB6B6"/>
<path d="M408.8 188.475C408.8 188.475 432.697 179.283 443.727 206.859C454.756 234.434 466.705 370.471 466.705 370.471L410.638 360.36L408.8 188.475V188.475V188.475Z" fill="#E6E6E6"/>
<path d="M80.6571 174.988H48.4787C46.3313 174.988 44.584 173.24 44.584 171.093C44.584 168.945 46.3313 167.199 48.4787 167.199H80.6571C82.8045 167.199 84.5509 168.945 84.5509 171.093C84.5509 173.24 82.8045 174.988 80.6571 174.988Z" fill="#E6E6E6"/>
<path d="M80.6571 119.782H48.4787C46.3313 119.782 44.584 118.034 44.584 115.887C44.584 113.739 46.3313 111.993 48.4787 111.993H80.6571C82.8045 111.993 84.5509 113.739 84.5509 115.887C84.5509 118.034 82.8045 119.782 80.6571 119.782Z" fill="#E6E6E6"/>
<path d="M80.6571 79.9695H48.4787C46.3313 79.9695 44.584 78.2221 44.584 76.0746C44.584 73.9271 46.3313 72.1805 48.4787 72.1805H80.6571C82.8045 72.1805 84.5509 73.9271 84.5509 76.0746C84.5509 78.2221 82.8045 79.9695 80.6571 79.9695Z" fill="#E6E6E6"/>
<path d="M43.293 189.486C43.293 190.186 43.8548 190.748 44.5544 190.748H261.101C261.8 190.748 262.362 190.186 262.362 189.486C262.362 188.787 261.8 188.225 261.101 188.225H44.5544C43.8548 188.225 43.293 188.787 43.293 189.486Z" fill="#3F3D56"/>
<path d="M460.931 515.978C460.931 516.678 461.492 517.24 462.192 517.24H678.738C679.438 517.24 680 516.678 680 515.978C680 515.279 679.438 514.717 678.738 514.717H462.192C461.492 514.717 460.931 515.279 460.931 515.978V515.978Z" fill="#3F3D56"/>
<path d="M397.331 618.802C397.331 619.502 397.893 620.064 398.593 620.064H615.139C615.838 620.064 616.4 619.502 616.4 618.802C616.4 618.103 615.838 617.541 615.139 617.541H398.593C397.893 617.541 397.331 618.103 397.331 618.802V618.802Z" fill="#3F3D56"/>
<path d="M251.714 183.109C243.526 183.893 237.887 194.958 239.119 207.829C239.541 212.977 241.189 217.95 243.926 222.33L245.504 236.897L245.263 236.97L241.296 306.04C240.374 322.1 246.73 337.88 258.978 348.309C266.264 354.512 274.036 357.653 279.034 349.815C287.327 336.809 276.585 283.195 269.531 252.714L266.796 220.141C268.654 215.319 269.33 210.123 268.767 204.987C267.537 192.12 259.902 182.325 251.714 183.109H251.714V183.109Z" fill="#FFB6B6"/>
</g>
<defs>
<clipPath id="clip0_783_518">
<rect width="680" height="664" fill="white"/>
</clipPath>
</defs>
</svg>
