<svg width="577" height="434" viewBox="0 0 577 434" fill="none" xmlns="http://www.w3.org/2000/svg">
<path opacity="0.45" d="M127.517 385.833C172.696 385.833 209.321 378.911 209.321 370.372C209.321 361.833 172.696 354.911 127.517 354.911C82.3379 354.911 45.7129 361.833 45.7129 370.372C45.7129 378.911 82.3379 385.833 127.517 385.833Z" fill="#E6E6E6"/>
<path d="M433.139 110.903H131.513V308.701H433.139V110.903Z" fill="#E6E6E6"/>
<path d="M146.096 128.956C148.821 128.956 151.03 126.751 151.03 124.032C151.03 121.313 148.821 119.109 146.096 119.109C143.372 119.109 141.163 121.313 141.163 124.032C141.163 126.751 143.372 128.956 146.096 128.956Z" fill="#24285B"/>
<path d="M160.752 128.956C163.476 128.956 165.685 126.751 165.685 124.032C165.685 121.313 163.476 119.109 160.752 119.109C158.027 119.109 155.818 121.313 155.818 124.032C155.818 126.751 158.027 128.956 160.752 128.956Z" fill="#9870FF"/>
<path d="M174.571 128.956C177.296 128.956 179.504 126.751 179.504 124.032C179.504 121.313 177.296 119.109 174.571 119.109C171.846 119.109 169.638 121.313 169.638 124.032C169.638 126.751 171.846 128.956 174.571 128.956Z" fill="#FFD200"/>
<path opacity="0.08" d="M384.253 110.903L313.21 111.191L301.843 127.156L194.737 225.321L203.537 242.38L173.46 254.213H144.149L140.269 308.701H174.542L179.389 276.886C208.08 273.072 226.992 246.828 226.992 246.828L351.97 193.492L336.102 157.013L357.206 146.936L358.375 153.544C358.375 153.544 369.785 150.405 369.309 139.796C368.833 129.186 367.837 116.014 384.253 110.903Z" fill="black"/>
<path d="M325.63 70.696C323.885 84.6455 316.672 113.466 287.058 126.307L291.385 133.505C291.385 133.505 332.597 120.549 342.536 87.4383C346.993 72.5387 344.152 66.075 339.651 63.455C338.284 62.7018 336.752 62.2967 335.191 62.2757C333.63 62.2547 332.087 62.6184 330.701 63.3345C329.314 64.0507 328.126 65.0972 327.241 66.3813C326.357 67.6654 325.803 69.1474 325.63 70.696Z" fill="#9870FF"/>
<path opacity="0.2" d="M325.63 70.696C323.885 84.6455 316.672 113.466 287.058 126.307L291.385 133.505C291.385 133.505 332.597 120.549 342.536 87.4383C346.993 72.5387 344.152 66.075 339.651 63.455C338.284 62.7018 336.752 62.2967 335.191 62.2757C333.63 62.2547 332.087 62.6184 330.701 63.3345C329.314 64.0507 328.126 65.0972 327.241 66.3813C326.357 67.6654 325.803 69.1474 325.63 70.696Z" fill="white"/>
<path d="M329.409 48.6417L336.492 57.2648L342.723 50.5852L331.544 40.6809L329.409 48.6417Z" fill="#F4A28C"/>
<path d="M324.419 32.8064C323.332 32.638 322.22 32.7435 321.185 33.1134C320.149 33.4833 319.223 34.1059 318.491 34.9243C317.758 35.7428 317.242 36.7312 316.99 37.7995C316.738 38.8678 316.758 39.9821 317.047 41.0408C318.36 46.0793 321.187 52.9461 326.582 50.5852C334.819 46.9862 330.492 36.1894 330.492 36.1894C328.845 34.4903 326.732 33.3136 324.419 32.8064V32.8064Z" fill="#F4A28C"/>
<path d="M335.367 100.308L321.317 107.506C320.114 108.131 319.049 108.991 318.186 110.035C317.323 111.08 316.68 112.287 316.295 113.585C315.91 114.883 315.791 116.245 315.945 117.59C316.099 118.934 316.523 120.235 317.192 121.412L329.813 143.222L335.958 138.903L328.746 119.008C328.624 118.679 328.573 118.328 328.597 117.978C328.62 117.628 328.718 117.287 328.882 116.977C329.047 116.667 329.276 116.396 329.553 116.18C329.83 115.964 330.15 115.81 330.491 115.726L344.498 112.314L342.003 118.936C341.216 121.005 340.936 123.232 341.187 125.431C341.438 127.629 342.212 129.736 343.445 131.576L356.428 150.895L361.346 147.886L355.1 130.77C354.414 128.891 354.257 126.86 354.646 124.898C355.035 122.936 355.956 121.118 357.307 119.642L364.073 112.242L335.367 100.308Z" fill="#24285B"/>
<path d="M471.481 276.023H387.095V329.287H471.481V276.023Z" fill="#F2F2F2"/>
<path opacity="0.08" d="M387.311 276.023H373.593V308.701H387.311V276.023Z" fill="black"/>
<path d="M313.902 34.6347C313.902 34.6347 311.623 41.9477 319.557 40.1482C327.49 38.3488 326.885 35.8295 326.885 35.8295C326.885 35.8295 327.49 44.467 331.457 42.5523C335.424 40.6377 333.145 35.9303 331.457 32.7056C329.77 29.481 328.774 28.5165 324.245 28.0414C319.715 27.5664 314.465 30.2008 313.902 34.6347Z" fill="#24285B"/>
<path d="M327.015 40.868C327.015 40.868 326.683 38.4064 329.063 38.8814C331.443 39.3565 330.506 42.7827 329.063 43.0274C327.621 43.2721 327.015 40.868 327.015 40.868Z" fill="#F4A28C"/>
<path d="M117.896 228.027L121.43 238.608L113.049 243.92L110.02 225.58L117.896 228.027Z" fill="#F4A28C"/>
<path d="M107.149 215.359C107.588 214.353 108.272 213.472 109.139 212.797C110.006 212.121 111.027 211.672 112.112 211.491C113.197 211.309 114.309 211.401 115.349 211.757C116.39 212.113 117.324 212.723 118.068 213.531C121.631 217.331 125.93 223.392 121.069 226.674C113.611 231.713 106.774 222.355 106.774 222.355C106.2 220.038 106.33 217.602 107.149 215.359V215.359Z" fill="#F4A28C"/>
<path d="M112.601 221.851C112.601 221.851 110.683 220.253 109.817 222.514C108.952 224.774 112.327 225.882 113.337 224.731C114.347 223.579 112.601 221.851 112.601 221.851Z" fill="#F4A28C"/>
<path d="M334.992 55.4365L342.724 50.5852C342.724 50.5852 367.838 42.0197 375.772 49.8942C383.705 57.7687 384.268 87.4815 364.073 112.242L335.367 100.308C335.367 100.308 335.944 86.0563 331.17 82.4574C326.395 78.8584 320.524 68.0616 334.992 55.4365Z" fill="#9870FF"/>
<path d="M331.255 142.142C331.255 142.142 329.683 149.426 332.496 149.167C335.309 148.908 335.958 138.831 335.958 138.831L331.255 142.142Z" fill="#9870FF"/>
<path d="M356.572 150.564C356.572 150.564 355 157.834 357.812 157.589C360.625 157.344 361.26 147.253 361.26 147.253L356.572 150.564Z" fill="#9870FF"/>
<path d="M396.413 107.261C396.413 107.261 391.567 109.349 393.355 111.738C395.144 114.128 401.275 110.903 401.275 110.903L401.65 107.261H396.413Z" fill="#F4A28C"/>
<path d="M287.649 127.156C287.649 127.156 279.687 127.804 281.36 129.632C282.182 130.622 283.218 131.415 284.389 131.95C284.389 131.95 278.619 138.385 282.817 139.666C287.015 140.947 291.111 132.929 291.111 132.929L287.649 127.156Z" fill="#F4A28C"/>
<path d="M303.983 123.417L163.316 188.209L189.065 243.884L329.731 179.093L303.983 123.417Z" fill="#FFD200"/>
<path opacity="0.58" d="M292.412 146.365L224.909 177.321L229.125 186.478L296.628 155.522L292.412 146.365Z" fill="white"/>
<path opacity="0.58" d="M301.14 165.339L233.638 196.295L237.854 205.451L305.357 174.495L301.14 165.339Z" fill="white"/>
<path d="M204.893 220.153C213.752 220.153 220.934 212.986 220.934 204.145C220.934 195.304 213.752 188.137 204.893 188.137C196.034 188.137 188.853 195.304 188.853 204.145C188.853 212.986 196.034 220.153 204.893 220.153Z" fill="white"/>
<path d="M415.787 292.333L404.535 303.245L415.787 314.171" stroke="#A5A5A5" stroke-width="2.03" stroke-linecap="round" stroke-linejoin="round"/>
<path d="M440.121 292.333L451.373 303.245L440.121 314.171" stroke="#A5A5A5" stroke-width="2.03" stroke-linecap="round" stroke-linejoin="round"/>
<path opacity="0.58" d="M276.499 93.4557C276.499 93.4557 262.636 89.7416 259.65 76.9006C259.65 76.9006 281.072 72.4811 281.778 94.5642L276.499 93.4557Z" fill="#9870FF"/>
<path opacity="0.73" d="M278.186 92.0737C278.186 92.0737 268.449 76.8574 276.902 62.5624C276.902 62.5624 293.245 72.8266 286.091 92.0737H278.186Z" fill="#9870FF"/>
<path d="M280.682 92.0737C280.682 92.0737 285.716 75.9505 301.151 72.8266C301.151 72.8266 304.036 83.2779 291.226 92.0737H280.682Z" fill="#9870FF"/>
<path d="M432.332 292.333L421.542 314.171" stroke="#A5A5A5" stroke-width="2.03" stroke-linecap="round" stroke-linejoin="round"/>
<path opacity="0.63" d="M193.295 145.626H151.016V153.544H193.295V145.626Z" fill="#CECECE"/>
<path d="M111.173 241.833C111.173 241.833 86.4055 256.804 83.1598 291.93C82.889 294.837 83.6737 297.744 85.3709 300.123C87.068 302.501 89.5648 304.191 92.4063 304.886L121.429 312.012L111.173 241.833Z" fill="#9870FF"/>
<path opacity="0.2" d="M111.173 241.833C111.173 241.833 86.4055 256.804 83.1598 291.93C82.889 294.837 83.6737 297.744 85.3709 300.123C87.068 302.501 89.5648 304.191 92.4063 304.886L121.429 312.012L111.173 241.833Z" fill="white"/>
<path d="M270.642 91.757L273.527 110.903H291.197L293.722 91.757H270.642Z" fill="#24285B"/>
<path d="M113.655 219.102C113.655 219.102 117.607 230.417 110.698 229.712C103.788 229.006 107.582 224.14 104.149 219.102C100.716 214.063 102.533 210.666 107.755 206.246C110.164 204.217 111.78 203.281 112.732 202.201C113.137 201.723 113.657 201.355 114.243 201.132C114.829 200.908 115.462 200.837 116.084 200.925C116.705 201.013 117.294 201.257 117.795 201.633C118.296 202.01 118.693 202.508 118.949 203.079C120.738 207.427 120.752 213.243 113.655 219.102Z" fill="#24285B"/>
<path opacity="0.08" d="M433.139 163.189H369.756V262.649H433.139V163.189Z" fill="black"/>
<path d="M116.363 281.417L68.5371 293.719L77.3724 327.93L125.198 315.629L116.363 281.417Z" fill="#FFD200"/>
<path opacity="0.08" d="M96.7773 285.884L102.259 308.701L100.831 321.268L113.655 317.957L117.477 307.765L105.158 283.71L96.7773 285.884Z" fill="black"/>
<path d="M105.447 249.189C106.624 246.583 108.35 244.262 110.509 242.384C112.667 240.506 115.207 239.114 117.954 238.306C128.542 235.124 148.65 228.473 154.593 238.306C162.729 251.838 150.266 304.972 150.266 304.972L114.679 307.722C114.679 307.722 95.0467 272.539 105.447 249.189Z" fill="#9870FF"/>
<path d="M150.207 305.016L145.519 366.068H138.119L131.512 318.634L115.154 307.765L150.207 305.016Z" fill="#24285B"/>
<path d="M115.154 307.765L104.941 366.068H112.875L130.012 317.641L115.154 307.765Z" fill="#24285B"/>
<path d="M133.344 246.439C132.865 244.941 132.743 243.351 132.989 241.798C133.235 240.244 133.843 238.769 134.762 237.492C135.682 236.214 136.889 235.17 138.286 234.441C139.683 233.712 141.231 233.32 142.807 233.296C147.337 233.152 152.544 233.929 156.54 237.154C165.44 244.352 194.622 249.247 220.962 225.191L226.025 232.951C226.025 232.951 196.108 271.819 149.255 260.648C145.693 259.842 142.389 258.162 139.643 255.758C136.898 253.355 134.797 250.305 133.532 246.886C133.46 246.742 133.402 246.583 133.344 246.439Z" fill="#9870FF"/>
<path opacity="0.2" d="M133.344 246.439C132.865 244.941 132.743 243.351 132.989 241.798C133.235 240.244 133.843 238.769 134.762 237.492C135.682 236.214 136.889 235.17 138.286 234.441C139.683 233.712 141.231 233.32 142.807 233.296C147.337 233.152 152.544 233.929 156.54 237.154C165.44 244.352 194.622 249.247 220.962 225.191L226.025 232.951C226.025 232.951 196.108 271.819 149.255 260.648C145.693 259.842 142.389 258.162 139.643 255.758C136.898 253.355 134.797 250.305 133.532 246.886C133.46 246.742 133.402 246.583 133.344 246.439Z" fill="white"/>
<path opacity="0.08" d="M121.026 237.37C121.026 237.37 104.379 290.879 152.443 294.42L150.207 305.016L114.621 307.765C106.438 293.379 102.287 277.058 102.605 260.518C102.605 260.518 102.908 246.871 112.544 240.839C115.092 239.095 117.984 237.913 121.026 237.37Z" fill="black"/>
<path d="M106.384 366.068L101.465 369.681C101.278 369.815 101.139 370.004 101.067 370.221C100.995 370.439 100.995 370.674 101.065 370.892C101.136 371.11 101.274 371.3 101.46 371.434C101.646 371.568 101.87 371.64 102.1 371.639H110.351C110.637 371.635 110.91 371.521 111.112 371.319C111.314 371.117 111.429 370.845 111.433 370.56V366.068H106.384Z" fill="#9870FF"/>
<path d="M145.317 366.068L149.948 369.681C150.128 369.822 150.261 370.015 150.326 370.234C150.391 370.453 150.386 370.687 150.311 370.903C150.236 371.118 150.096 371.306 149.909 371.438C149.722 371.57 149.499 371.64 149.27 371.639H143.399C142.567 371.635 141.771 371.303 141.185 370.715C140.598 370.127 140.269 369.331 140.269 368.501V366.068H145.317Z" fill="#9870FF"/>
<path d="M489.022 143.826H384.253V251.19H489.022V143.826Z" fill="#F2F2F2"/>
<path d="M467.731 170.315H403.179V174.173H467.731V170.315Z" fill="#A5A5A5"/>
<path d="M467.731 194.687H403.179V198.545H467.731V194.687Z" fill="#A5A5A5"/>
<path d="M467.731 219.059H403.179V222.917H467.731V219.059Z" fill="#A5A5A5"/>
<path d="M464.384 163.189H464.369C461.247 163.189 458.715 165.715 458.715 168.832V175.655C458.715 178.772 461.247 181.299 464.369 181.299H464.384C467.507 181.299 470.038 178.772 470.038 175.655V168.832C470.038 165.715 467.507 163.189 464.384 163.189Z" fill="#24285B"/>
<path d="M438.809 187.561H438.794C435.671 187.561 433.14 190.087 433.14 193.204V200.027C433.14 203.144 435.671 205.671 438.794 205.671H438.809C441.932 205.671 444.463 203.144 444.463 200.027V193.204C444.463 190.087 441.932 187.561 438.809 187.561Z" fill="#9870FF"/>
<path d="M421.498 211.947H421.484C418.361 211.947 415.829 214.474 415.829 217.59V224.414C415.829 227.53 418.361 230.057 421.484 230.057H421.498C424.621 230.057 427.153 227.53 427.153 224.414V217.59C427.153 214.474 424.621 211.947 421.498 211.947Z" fill="#FFD200"/>
<path d="M353.918 257.006H235.676V283.897H353.918V257.006Z" fill="white"/>
<path d="M353.918 257.006H313.6V283.897H353.918V257.006Z" fill="#24285B"/>
<path d="M224.699 230.95C224.699 230.95 230.873 232.965 232.185 223.896L221.698 226.357L224.699 230.95Z" fill="#F4A28C"/>
<path opacity="0.08" d="M347.195 105.217C347.195 105.217 359.745 102.827 364.073 85.5524C368.4 68.2775 359.182 54.5584 368.083 52.4422C376.983 50.326 380.676 72.8554 380.676 72.8554C380.676 72.8554 381.022 90.4758 364.073 112.271L347.195 105.217Z" fill="black"/>
<path d="M373.853 48.3538C381.239 50.9739 392.779 56.1851 400.568 65.0097C402.778 67.5198 404.414 70.4796 405.363 73.6839C406.312 76.8882 406.551 80.2601 406.064 83.5658L402.573 107.261H394.279L394.654 85.6676C394.673 83.3853 393.956 81.1575 392.607 79.314C391.259 77.4706 389.351 76.1094 387.167 75.4322C378.209 72.6971 364.462 66.622 364.448 55.1054C364.433 53.9707 364.692 52.8491 365.204 51.8357C365.716 50.8224 366.465 49.9472 367.388 49.2845C368.311 48.6219 369.381 48.1912 370.506 48.0292C371.632 47.8672 372.78 47.9785 373.853 48.3538V48.3538Z" fill="#9870FF"/>
<path opacity="0.2" d="M373.853 48.3538C381.239 50.9739 392.779 56.1851 400.568 65.0097C402.778 67.5198 404.414 70.4796 405.363 73.6839C406.312 76.8882 406.551 80.2601 406.064 83.5658L402.573 107.261H394.279L394.654 85.6676C394.673 83.3853 393.956 81.1575 392.607 79.314C391.259 77.4706 389.351 76.1094 387.167 75.4322C378.209 72.6971 364.462 66.622 364.448 55.1054C364.433 53.9707 364.692 52.8491 365.204 51.8357C365.716 50.8224 366.465 49.9472 367.388 49.2845C368.311 48.6219 369.381 48.1912 370.506 48.0292C371.632 47.8672 372.78 47.9785 373.853 48.3538V48.3538Z" fill="white"/>
<path opacity="0.08" d="M353.413 237.37H299.564V243.906H353.413V237.37Z" fill="black"/>
</svg>
