<svg width="151" height="151" viewBox="0 0 151 151" fill="none" xmlns="http://www.w3.org/2000/svg">
<path d="M148.756 75.5C149.995 75.5 151.004 74.4947 150.967 73.2559C150.503 57.6602 145.217 42.5701 135.808 30.0777C125.949 16.987 112.097 7.45986 96.3462 2.93493C80.5949 -1.58999 63.7991 -0.86695 48.495 4.99487C33.1909 10.8567 20.2096 21.539 11.5116 35.4285C2.81353 49.3181 -1.12899 65.6607 0.279392 81.9884C1.68777 98.316 8.37058 113.742 19.3186 125.937C30.2667 138.132 44.8854 146.434 60.9672 149.588C76.314 152.598 92.1979 150.766 106.431 144.373C107.561 143.866 108.026 142.52 107.485 141.405C106.943 140.29 105.602 139.828 104.47 140.334C91.1147 146.302 76.2219 148.007 61.8312 145.184C46.7054 142.217 32.9557 134.409 22.6585 122.939C12.3613 111.469 6.07574 96.9597 4.75108 81.6026C3.42643 66.2456 7.13458 50.8746 15.3156 37.8107C23.4965 24.7468 35.7061 14.6996 50.1004 9.18623C64.4947 3.67289 80.2921 2.99283 95.1069 7.24876C109.922 11.5047 122.95 20.4655 132.223 32.778C141.046 44.4921 146.014 58.6348 146.476 73.2559C146.515 74.4947 147.517 75.5 148.756 75.5Z" fill="#6C63FF"/>
<path d="M148.756 75.5C149.995 75.5 151.004 74.4947 150.967 73.2559C150.505 57.72 145.257 42.6843 135.914 30.2182C126.121 17.1527 112.356 7.61407 96.6837 3.03275C81.0114 -1.54858 64.2762 -0.92567 48.9879 4.80805C33.6995 10.5418 20.682 21.0773 11.8874 34.8346C3.09278 48.592 -1.00485 64.8297 0.208987 81.1127C1.42282 97.3957 7.88269 112.846 18.6199 125.148C29.357 137.449 43.7928 145.938 59.7623 149.342C74.9992 152.589 90.8488 151.04 105.143 144.937C106.283 144.451 106.772 143.114 106.252 141.989C105.732 140.864 104.399 140.377 103.258 140.862C89.8457 146.558 74.9854 147.997 60.6979 144.952C45.6777 141.751 32.1001 133.766 22.0013 122.196C11.9024 110.626 5.82654 96.094 4.68486 80.779C3.54319 65.464 7.39722 50.1916 15.669 37.2521C23.9408 24.3126 36.1845 14.4034 50.564 9.01052C64.9435 3.61766 80.6838 3.03178 95.4244 7.34075C110.165 11.6497 123.111 20.6213 132.322 32.9101C141.084 44.5994 146.016 58.691 146.476 73.2559C146.515 74.4947 147.517 75.5 148.756 75.5Z" fill="#A8E637"/>
<path d="M63.7393 82.126C62.8633 82.126 62.0713 81.976 61.3633 81.676C60.6673 81.376 60.1153 80.944 59.7073 80.38C59.2993 79.816 59.0893 79.15 59.0773 78.382H61.7773C61.8133 78.898 61.9933 79.306 62.3173 79.606C62.6533 79.906 63.1093 80.056 63.6853 80.056C64.2733 80.056 64.7353 79.918 65.0713 79.642C65.4073 79.354 65.5753 78.982 65.5753 78.526C65.5753 78.154 65.4613 77.848 65.2333 77.608C65.0053 77.368 64.7173 77.182 64.3693 77.05C64.0333 76.906 63.5653 76.75 62.9653 76.582C62.1493 76.342 61.4833 76.108 60.9673 75.88C60.4633 75.64 60.0253 75.286 59.6533 74.818C59.2933 74.338 59.1133 73.702 59.1133 72.91C59.1133 72.166 59.2993 71.518 59.6713 70.966C60.0433 70.414 60.5653 69.994 61.2373 69.706C61.9093 69.406 62.6773 69.256 63.5413 69.256C64.8373 69.256 65.8873 69.574 66.6913 70.21C67.5073 70.834 67.9573 71.71 68.0413 72.838H65.2693C65.2453 72.406 65.0593 72.052 64.7113 71.776C64.3753 71.488 63.9253 71.344 63.3613 71.344C62.8693 71.344 62.4733 71.47 62.1733 71.722C61.8853 71.974 61.7413 72.34 61.7413 72.82C61.7413 73.156 61.8493 73.438 62.0653 73.666C62.2933 73.882 62.5693 74.062 62.8933 74.206C63.2293 74.338 63.6973 74.494 64.2973 74.674C65.1133 74.914 65.7793 75.154 66.2953 75.394C66.8113 75.634 67.2553 75.994 67.6273 76.474C67.9993 76.954 68.1853 77.584 68.1853 78.364C68.1853 79.036 68.0113 79.66 67.6633 80.236C67.3153 80.812 66.8053 81.274 66.1333 81.622C65.4613 81.958 64.6633 82.126 63.7393 82.126Z" fill="#A8E637"/>
<path d="M72.89 71.47V74.62H77.12V76.618H72.89V79.948H77.66V82H70.37V69.418H77.66V71.47H72.89Z" fill="#A8E637"/>
<path d="M85.7821 82.126C84.6061 82.126 83.5261 81.85 82.5421 81.298C81.5581 80.746 80.7781 79.984 80.2021 79.012C79.6261 78.028 79.3381 76.918 79.3381 75.682C79.3381 74.458 79.6261 73.36 80.2021 72.388C80.7781 71.404 81.5581 70.636 82.5421 70.084C83.5261 69.532 84.6061 69.256 85.7821 69.256C86.9701 69.256 88.0501 69.532 89.0221 70.084C90.0061 70.636 90.7801 71.404 91.3441 72.388C91.9201 73.36 92.2081 74.458 92.2081 75.682C92.2081 76.918 91.9201 78.028 91.3441 79.012C90.7801 79.984 90.0061 80.746 89.0221 81.298C88.0381 81.85 86.9581 82.126 85.7821 82.126ZM85.7821 79.876C86.5381 79.876 87.2041 79.708 87.7801 79.372C88.3561 79.024 88.8061 78.532 89.1301 77.896C89.4541 77.26 89.6161 76.522 89.6161 75.682C89.6161 74.842 89.4541 74.11 89.1301 73.486C88.8061 72.85 88.3561 72.364 87.7801 72.028C87.2041 71.692 86.5381 71.524 85.7821 71.524C85.0261 71.524 84.3541 71.692 83.7661 72.028C83.1901 72.364 82.7401 72.85 82.4161 73.486C82.0921 74.11 81.9301 74.842 81.9301 75.682C81.9301 76.522 82.0921 77.26 82.4161 77.896C82.7401 78.532 83.1901 79.024 83.7661 79.372C84.3541 79.708 85.0261 79.876 85.7821 79.876Z" fill="#A8E637"/>
</svg>
