<svg width="176" height="31" viewBox="0 0 176 31" fill="none" xmlns="http://www.w3.org/2000/svg">
<path d="M8.34659 25H1.64347V6.09091H8.40199C10.304 6.09091 11.9413 6.46946 13.3139 7.22656C14.6866 7.97751 15.7422 9.05776 16.4808 10.4673C17.2256 11.8769 17.598 13.5634 17.598 15.527C17.598 17.4967 17.2256 19.1894 16.4808 20.6051C15.7422 22.0208 14.6804 23.1072 13.2955 23.8643C11.9167 24.6214 10.267 25 8.34659 25ZM5.64134 21.5746H8.1804C9.36222 21.5746 10.3563 21.3653 11.1626 20.9467C11.9751 20.522 12.5845 19.8665 12.9908 18.9801C13.4032 18.0876 13.6094 16.9366 13.6094 15.527C13.6094 14.1297 13.4032 12.9879 12.9908 12.1016C12.5845 11.2152 11.9782 10.5627 11.1719 10.1442C10.3655 9.72562 9.37145 9.51634 8.18963 9.51634H5.64134V21.5746ZM20.5595 25V6.09091H33.301V9.38707H24.5574V13.8928H32.6454V17.1889H24.5574V21.7038H33.3379V25H20.5595ZM53.1634 12.7109H49.1193C49.0455 12.1877 48.8946 11.723 48.6669 11.3168C48.4392 10.9044 48.1468 10.5535 47.7898 10.2642C47.4328 9.9749 47.0204 9.75331 46.5526 9.59943C46.0909 9.44555 45.5893 9.36861 45.0476 9.36861C44.0689 9.36861 43.2164 9.61174 42.4901 10.098C41.7637 10.5781 41.2005 11.2798 40.8004 12.2031C40.4003 13.1203 40.2003 14.2344 40.2003 15.5455C40.2003 16.8935 40.4003 18.026 40.8004 18.9432C41.2067 19.8603 41.773 20.5528 42.4993 21.0206C43.2256 21.4884 44.0658 21.7223 45.0199 21.7223C45.5554 21.7223 46.0509 21.6515 46.5064 21.5099C46.968 21.3684 47.3774 21.1622 47.7344 20.8913C48.0914 20.6143 48.3868 20.2789 48.6207 19.8849C48.8608 19.491 49.027 19.0417 49.1193 18.5369L53.1634 18.5554C53.0587 19.4233 52.7971 20.2604 52.3786 21.0668C51.9661 21.867 51.4091 22.584 50.7074 23.218C50.0118 23.8459 49.1809 24.3445 48.2145 24.7138C47.2543 25.0769 46.1679 25.2585 44.9553 25.2585C43.2687 25.2585 41.7607 24.8769 40.4311 24.1136C39.1077 23.3504 38.0613 22.2455 37.2919 20.799C36.5286 19.3525 36.147 17.6013 36.147 15.5455C36.147 13.4834 36.5348 11.7292 37.3104 10.2827C38.0859 8.83617 39.1385 7.73437 40.468 6.97727C41.7976 6.21401 43.2933 5.83239 44.9553 5.83239C46.0509 5.83239 47.0665 5.98627 48.0021 6.29403C48.9439 6.6018 49.7779 7.05114 50.5043 7.64204C51.2306 8.2268 51.8215 8.94389 52.277 9.79332C52.7386 10.6428 53.0341 11.6153 53.1634 12.7109ZM73.4066 15.5455C73.4066 17.6075 73.0157 19.3617 72.234 20.8082C71.4585 22.2547 70.3997 23.3596 69.0579 24.1229C67.7222 24.88 66.2203 25.2585 64.5522 25.2585C62.8718 25.2585 61.3638 24.8769 60.0281 24.1136C58.6924 23.3504 57.6367 22.2455 56.8612 20.799C56.0856 19.3525 55.6978 17.6013 55.6978 15.5455C55.6978 13.4834 56.0856 11.7292 56.8612 10.2827C57.6367 8.83617 58.6924 7.73437 60.0281 6.97727C61.3638 6.21401 62.8718 5.83239 64.5522 5.83239C66.2203 5.83239 67.7222 6.21401 69.0579 6.97727C70.3997 7.73437 71.4585 8.83617 72.234 10.2827C73.0157 11.7292 73.4066 13.4834 73.4066 15.5455ZM69.3533 15.5455C69.3533 14.2098 69.1533 13.0833 68.7532 12.1662C68.3593 11.2491 67.8022 10.5535 67.082 10.0795C66.3619 9.60559 65.5186 9.36861 64.5522 9.36861C63.5858 9.36861 62.7425 9.60559 62.0224 10.0795C61.3022 10.5535 60.7421 11.2491 60.342 12.1662C59.948 13.0833 59.7511 14.2098 59.7511 15.5455C59.7511 16.8812 59.948 18.0076 60.342 18.9247C60.7421 19.8419 61.3022 20.5374 62.0224 21.0114C62.7425 21.4853 63.5858 21.7223 64.5522 21.7223C65.5186 21.7223 66.3619 21.4853 67.082 21.0114C67.8022 20.5374 68.3593 19.8419 68.7532 18.9247C69.1533 18.0076 69.3533 16.8812 69.3533 15.5455ZM76.3681 25V6.09091H83.8283C85.2563 6.09091 86.4751 6.34635 87.4846 6.85724C88.5002 7.36198 89.2727 8.07907 89.802 9.00852C90.3375 9.93182 90.6053 11.0182 90.6053 12.2678C90.6053 13.5234 90.3345 14.6037 89.7928 15.5085C89.2511 16.4072 88.4663 17.0966 87.4384 17.5767C86.4166 18.0568 85.1794 18.2969 83.7267 18.2969H78.7317V15.0838H83.0804C83.8437 15.0838 84.4777 14.9792 84.9824 14.7699C85.4872 14.5606 85.8626 14.2467 86.1088 13.8281C86.3612 13.4096 86.4874 12.8894 86.4874 12.2678C86.4874 11.6399 86.3612 11.1106 86.1088 10.6797C85.8626 10.2488 85.4841 9.92258 84.9732 9.70099C84.4685 9.47325 83.8314 9.35938 83.062 9.35938H80.3659V25H76.3681ZM86.5797 16.3949L91.2793 25H86.8659L82.2679 16.3949H86.5797ZM96.6898 25H92.4057L98.9334 6.09091H104.085L110.604 25H106.32L101.583 10.4119H101.436L96.6898 25ZM96.4221 17.5675H106.541V20.6882H96.4221V17.5675ZM124.437 22.1193V9.04545H127.743V22.1193H124.437ZM119.553 17.2351V13.9297H132.627V17.2351H119.553Z" fill="url(#paint0_linear_709_605)"/>
<path d="M174.045 30.7407C175.477 26.3189 175.566 21.5718 174.3 17.0997C173.034 12.6275 170.471 8.63115 166.934 5.61597C163.397 2.60079 159.045 0.702199 154.429 0.160292C149.812 -0.381615 145.139 0.457499 141 2.57152L143.512 7.49048C146.679 5.87333 150.253 5.23144 153.785 5.64598C157.316 6.06052 160.645 7.51287 163.351 9.81937C166.056 12.1259 168.017 15.1829 168.986 18.604C169.954 22.025 169.886 25.6564 168.791 29.0388L174.045 30.7407Z" fill="url(#paint1_linear_709_605)"/>
<path d="M165.231 29C166.194 25.9794 166.254 22.7364 165.402 19.6814C164.551 16.6263 162.826 13.8962 160.447 11.8365C158.067 9.77669 155.139 8.4797 152.034 8.1095C148.928 7.73931 145.785 8.31253 143 9.75669L144.69 13.117C146.82 12.0123 149.225 11.5738 151.601 11.857C153.976 12.1401 156.216 13.1323 158.036 14.708C159.856 16.2836 161.176 18.372 161.827 20.709C162.478 23.046 162.433 25.5267 161.696 27.8374L165.231 29Z" fill="url(#paint2_linear_709_605)"/>
<defs>
<linearGradient id="paint0_linear_709_605" x1="-94" y1="25" x2="165" y2="20.5" gradientUnits="userSpaceOnUse">
<stop offset="0.453125"/>
<stop offset="0.677083" stop-color="#38585F"/>
<stop offset="1" stop-color="#966213"/>
</linearGradient>
<linearGradient id="paint1_linear_709_605" x1="158.094" y1="0" x2="158.094" y2="30.7407" gradientUnits="userSpaceOnUse">
<stop stop-color="#12505B"/>
<stop offset="1" stop-color="#2E808F"/>
</linearGradient>
<linearGradient id="paint2_linear_709_605" x1="154.5" y1="8" x2="154.5" y2="29" gradientUnits="userSpaceOnUse">
<stop stop-color="#593415"/>
<stop offset="1" stop-color="#DB965C"/>
</linearGradient>
</defs>
</svg>
