<svg width="194" height="57" viewBox="0 0 194 57" fill="none" xmlns="http://www.w3.org/2000/svg">
<path d="M24.5505 39.3451H20.3351L19.7469 30.0153C19.5508 26.6794 19.4528 24.0321 19.4528 22.0736V20.9114L15.3355 36.9239H11.2508L6.87206 20.8791C6.91563 22.2996 6.93742 23.3757 6.93742 24.1075C6.93742 26.066 6.87206 28.0783 6.74136 30.1444L6.18584 39.3451H2.00315L3.8004 17.0374H9.35554L13.3748 32.6625L17.1654 17.0374H22.7859L24.5505 39.3451Z" fill="#292929"/>
<path d="M35.6354 21.7831C38.1843 21.7831 40.1667 22.5902 41.5827 24.2043C43.0205 25.797 43.7394 27.9922 43.7394 30.7901C43.7394 32.5764 43.4126 34.1583 42.7591 35.5357C42.1055 36.8916 41.1688 37.9462 39.9488 38.6995C38.7289 39.4527 37.2802 39.8294 35.6028 39.8294C33.0539 39.8294 31.0606 39.0331 29.6228 37.4404C28.185 35.8263 27.4661 33.6095 27.4661 30.7901C27.4661 29.0038 27.7929 27.4326 28.4465 26.0767C29.1 24.7208 30.0367 23.6663 31.2567 22.913C32.4984 22.1597 33.958 21.7831 35.6354 21.7831ZM35.6354 24.9145C33.1302 24.9145 31.8776 26.8731 31.8776 30.7901C31.8776 32.8132 32.1826 34.309 32.7925 35.2774C33.4243 36.2244 34.361 36.6979 35.6028 36.6979C36.8445 36.6979 37.7704 36.2137 38.3803 35.2452C39.0121 34.2767 39.328 32.7916 39.328 30.7901C39.328 28.7885 39.0121 27.3143 38.3803 26.3673C37.7704 25.3988 36.8554 24.9145 35.6354 24.9145Z" fill="#292929"/>
<path d="M57.5614 38.5381C56.9514 38.9685 56.2652 39.2913 55.5027 39.5065C54.762 39.7218 53.9996 39.8294 53.2153 39.8294C51.5161 39.8079 50.2199 39.3344 49.3267 38.4089C48.4553 37.4619 48.0196 36.0738 48.0196 34.2444V25.2374H45.3074V22.2673H48.0196V18.4902L52.2023 18.0059V22.2673H56.2216L55.7968 25.2374H52.2023V34.1475C52.2023 34.9869 52.3439 35.5895 52.6271 35.9554C52.9321 36.3213 53.4005 36.5042 54.0322 36.5042C54.664 36.5042 55.3502 36.2998 56.0909 35.8908L57.5614 38.5381Z" fill="#292929"/>
<path d="M66.4299 21.7831C68.9788 21.7831 70.9612 22.5902 72.3772 24.2043C73.815 25.797 74.5339 27.9922 74.5339 30.7901C74.5339 32.5764 74.2071 34.1583 73.5536 35.5357C72.9 36.8916 71.9633 37.9462 70.7433 38.6995C69.5234 39.4527 68.0747 39.8294 66.3973 39.8294C63.8484 39.8294 61.8551 39.0331 60.4173 37.4404C58.9795 35.8263 58.2606 33.6095 58.2606 30.7901C58.2606 29.0038 58.5874 27.4326 59.2409 26.0767C59.8945 24.7208 60.8312 23.6663 62.0512 22.913C63.2929 22.1597 64.7525 21.7831 66.4299 21.7831ZM66.4299 24.9145C63.9247 24.9145 62.672 26.8731 62.672 30.7901C62.672 32.8132 62.977 34.309 63.587 35.2774C64.2188 36.2244 65.1555 36.6979 66.3973 36.6979C67.639 36.6979 68.5648 36.2137 69.1748 35.2452C69.8066 34.2767 70.1225 32.7916 70.1225 30.7901C70.1225 28.7885 69.8066 27.3143 69.1748 26.3673C68.5648 25.3988 67.6499 24.9145 66.4299 24.9145Z" fill="#292929"/>
<path d="M86.9834 21.8154C87.6152 21.8154 88.1925 21.8907 88.7153 22.0413L87.9964 26.0445C87.4736 25.9153 86.9616 25.8508 86.4606 25.8508C85.4367 25.8508 84.6306 26.2166 84.0424 26.9484C83.4543 27.6586 82.9859 28.7562 82.6373 30.2413V39.3451H78.4546V22.2673H82.0818L82.4739 25.6248C82.8879 24.398 83.4869 23.4618 84.2712 22.8161C85.0555 22.149 85.9595 21.8154 86.9834 21.8154Z" fill="#292929"/>
<path d="M96.3572 21.7831C98.6882 21.7831 100.736 22.461 102.501 23.8169L100.867 26.2382C99.3853 25.3127 97.9366 24.85 96.5206 24.85C95.6927 24.85 95.0501 25.0114 94.5926 25.3342C94.1351 25.6355 93.9064 26.0445 93.9064 26.561C93.9064 26.9484 94.0044 27.2712 94.2005 27.5295C94.3965 27.7877 94.7451 28.0353 95.2462 28.272C95.769 28.4872 96.5315 28.7347 97.5336 29.0145C99.4071 29.5095 100.79 30.1659 101.684 30.9838C102.599 31.8016 103.056 32.9423 103.056 34.4058C103.056 36.1061 102.359 37.4404 100.965 38.4089C99.5704 39.3559 97.8386 39.8294 95.769 39.8294C94.353 39.8294 93.0568 39.6142 91.8804 39.1837C90.7258 38.7533 89.7237 38.1614 88.8741 37.4081L90.9654 35.0838C92.4686 36.2029 94.0371 36.7625 95.671 36.7625C96.6077 36.7625 97.3484 36.5795 97.893 36.2137C98.4594 35.8478 98.7426 35.342 98.7426 34.6964C98.7426 34.2013 98.6337 33.8139 98.4158 33.5342C98.2198 33.2328 97.8494 32.9746 97.3048 32.7594C96.782 32.5226 95.9542 32.2428 94.8214 31.92C93.0568 31.4465 91.7606 30.7901 90.9328 29.9507C90.1049 29.0898 89.691 28.0245 89.691 26.7547C89.691 25.8077 89.9633 24.9576 90.508 24.2043C91.0744 23.451 91.8586 22.8592 92.8607 22.4287C93.8846 21.9983 95.0501 21.7831 96.3572 21.7831Z" fill="#292929"/>
<path d="M115.656 21.7831C117.181 21.7831 118.379 22.2458 119.25 23.1713C120.122 24.0967 120.557 25.3665 120.557 26.9807V39.3451H116.375V27.6263C116.375 26.6148 116.19 25.9046 115.819 25.4956C115.471 25.0867 114.948 24.8823 114.251 24.8823C113.554 24.8823 112.911 25.1082 112.323 25.5602C111.735 25.9907 111.168 26.6148 110.624 27.4326V39.3451H106.441V15.4556L110.624 15.0359V24.3012C112.018 22.6224 113.695 21.7831 115.656 21.7831Z" fill="#292929"/>
<path d="M129.611 22.2673V39.3451H125.428V22.2673H129.611ZM127.487 13.6154C128.271 13.6154 128.903 13.8629 129.382 14.3579C129.883 14.8314 130.134 15.4233 130.134 16.1335C130.134 16.8437 129.883 17.4356 129.382 17.9091C128.903 18.3826 128.271 18.6193 127.487 18.6193C126.724 18.6193 126.093 18.3826 125.592 17.9091C125.112 17.4356 124.873 16.8437 124.873 16.1335C124.873 15.4233 125.112 14.8314 125.592 14.3579C126.093 13.8629 126.724 13.6154 127.487 13.6154Z" fill="#292929"/>
<path d="M143.604 21.7831C145.608 21.7831 147.177 22.5794 148.31 24.172C149.442 25.7431 150.009 27.9492 150.009 30.7901C150.009 32.5549 149.726 34.126 149.159 35.5034C148.615 36.8593 147.83 37.9247 146.807 38.6995C145.783 39.4527 144.574 39.8294 143.179 39.8294C142.243 39.8294 141.382 39.6357 140.598 39.2483C139.835 38.8609 139.171 38.3121 138.605 37.6018L138.343 39.3451H134.651V15.4233L138.833 14.9713V24.2043C139.4 23.4295 140.086 22.8377 140.892 22.4287C141.72 21.9983 142.624 21.7831 143.604 21.7831ZM142.036 36.7302C143.168 36.7302 144.051 36.2567 144.682 35.3097C145.314 34.3412 145.63 32.8347 145.63 30.7901C145.63 28.6379 145.336 27.1206 144.748 26.2382C144.16 25.3342 143.332 24.8823 142.264 24.8823C140.936 24.8823 139.792 25.6571 138.833 27.2067V34.7609C139.204 35.3851 139.661 35.8693 140.206 36.2137C140.772 36.558 141.382 36.7302 142.036 36.7302Z" fill="#292929"/>
<path d="M162.645 21.8154C163.277 21.8154 163.854 21.8907 164.377 22.0413L163.658 26.0445C163.135 25.9153 162.623 25.8508 162.122 25.8508C161.099 25.8508 160.293 26.2166 159.704 26.9484C159.116 27.6586 158.648 28.7562 158.299 30.2413V39.3451H154.117V22.2673H157.744L158.136 25.6248C158.55 24.398 159.149 23.4618 159.933 22.8161C160.717 22.149 161.621 21.8154 162.645 21.8154Z" fill="#292929"/>
<path d="M171.159 22.2673V39.3451H166.977V22.2673H171.159ZM169.035 13.6154C169.82 13.6154 170.451 13.8629 170.931 14.3579C171.432 14.8314 171.682 15.4233 171.682 16.1335C171.682 16.8437 171.432 17.4356 170.931 17.9091C170.451 18.3826 169.82 18.6193 169.035 18.6193C168.273 18.6193 167.641 18.3826 167.14 17.9091C166.661 17.4356 166.421 16.8437 166.421 16.1335C166.421 15.4233 166.661 14.8314 167.14 14.3579C167.641 13.8629 168.273 13.6154 169.035 13.6154Z" fill="#292929"/>
<path d="M190.741 15.4233V39.3451H187.048L186.754 37.1822C186.209 38 185.512 38.6457 184.663 39.1191C183.835 39.5926 182.887 39.8294 181.82 39.8294C179.707 39.8294 178.084 39.0223 176.951 37.4081C175.818 35.794 175.252 33.5987 175.252 30.8224C175.252 29.0791 175.535 27.5295 176.101 26.1736C176.668 24.7962 177.474 23.7201 178.519 22.9453C179.587 22.1705 180.818 21.7831 182.212 21.7831C183.867 21.7831 185.316 22.3965 186.558 23.6232V14.9713L190.741 15.4233ZM182.996 36.6979C183.737 36.6979 184.39 36.5257 184.957 36.1814C185.523 35.8155 186.057 35.2559 186.558 34.5027V26.6901C186.057 26.0875 185.545 25.6355 185.022 25.3342C184.521 25.0329 183.933 24.8823 183.257 24.8823C182.146 24.8823 181.264 25.3773 180.611 26.3673C179.979 27.3358 179.663 28.8101 179.663 30.7901C179.663 32.8993 179.946 34.4166 180.513 35.342C181.079 36.2459 181.907 36.6979 182.996 36.6979Z" fill="#292929"/>
<path d="M109.973 50.4425H193.5V57H103.127L109.973 50.4425Z" fill="#0085FF"/>
<path d="M95.3522 0H0.5V6.55752H103.127L95.3522 0Z" fill="#FF8A00"/>
</svg>
