<svg width="237" height="49" viewBox="0 0 237 49" fill="none" xmlns="http://www.w3.org/2000/svg">
<path d="M30.5095 40.772V48.644H0.749512V40.772H30.5095Z" fill="url(#paint0_linear_709_620)"/>
<path d="M49.2906 39.14C46.8266 39.14 44.6186 38.74 42.6666 37.94C40.7146 37.14 39.1466 35.956 37.9626 34.388C36.8106 32.82 36.2026 30.932 36.1386 28.724H44.8746C45.0026 29.972 45.4346 30.932 46.1706 31.604C46.9066 32.244 47.8666 32.564 49.0506 32.564C50.2666 32.564 51.2266 32.292 51.9306 31.748C52.6346 31.172 52.9866 30.388 52.9866 29.396C52.9866 28.564 52.6986 27.876 52.1226 27.332C51.5786 26.788 50.8906 26.34 50.0586 25.988C49.2586 25.636 48.1066 25.236 46.6026 24.788C44.4266 24.116 42.6506 23.444 41.2746 22.772C39.8986 22.1 38.7146 21.108 37.7226 19.796C36.7306 18.484 36.2346 16.772 36.2346 14.66C36.2346 11.524 37.3706 9.076 39.6426 7.316C41.9146 5.524 44.8746 4.62801 48.5226 4.62801C52.2346 4.62801 55.2266 5.524 57.4986 7.316C59.7706 9.076 60.9866 11.54 61.1466 14.708H52.2666C52.2026 13.62 51.8026 12.772 51.0666 12.164C50.3306 11.524 49.3866 11.204 48.2346 11.204C47.2426 11.204 46.4426 11.476 45.8346 12.02C45.2266 12.532 44.9226 13.284 44.9226 14.276C44.9226 15.364 45.4346 16.212 46.4586 16.82C47.4826 17.428 49.0826 18.084 51.2586 18.788C53.4346 19.524 55.1946 20.228 56.5386 20.9C57.9146 21.572 59.0986 22.548 60.0906 23.828C61.0826 25.108 61.5786 26.756 61.5786 28.772C61.5786 30.692 61.0826 32.436 60.0906 34.004C59.1306 35.572 57.7226 36.82 55.8666 37.748C54.0106 38.676 51.8186 39.14 49.2906 39.14Z" fill="url(#paint1_linear_709_620)"/>
<path d="M70.7579 9.236C69.3179 9.236 68.1339 8.82 67.2059 7.988C66.3099 7.124 65.8619 6.068 65.8619 4.82001C65.8619 3.54 66.3099 2.484 67.2059 1.652C68.1339 0.788003 69.3179 0.356003 70.7579 0.356003C72.1659 0.356003 73.3179 0.788003 74.2139 1.652C75.1419 2.484 75.6059 3.54 75.6059 4.82001C75.6059 6.068 75.1419 7.124 74.2139 7.988C73.3179 8.82 72.1659 9.236 70.7579 9.236ZM74.8379 12.02V38.804H66.6299V12.02H74.8379Z" fill="url(#paint2_linear_709_620)"/>
<path d="M96.6261 38.804L91.4901 31.364L87.1701 38.804H78.2901L87.1221 25.124L78.0501 12.02H87.2661L92.4021 19.412L96.7221 12.02H105.602L96.6261 25.508L105.842 38.804H96.6261Z" fill="url(#paint3_linear_709_620)"/>
<path d="M117.545 25.412C117.545 22.628 118.105 20.196 119.225 18.116C120.377 16.036 121.961 14.436 123.977 13.316C126.025 12.196 128.361 11.636 130.985 11.636C134.345 11.636 137.145 12.516 139.385 14.276C141.657 16.036 143.145 18.516 143.849 21.716H135.113C134.377 19.668 132.953 18.644 130.841 18.644C129.337 18.644 128.137 19.236 127.241 20.42C126.345 21.572 125.897 23.236 125.897 25.412C125.897 27.588 126.345 29.268 127.241 30.452C128.137 31.604 129.337 32.18 130.841 32.18C132.953 32.18 134.377 31.156 135.113 29.108H143.849C143.145 32.244 141.657 34.708 139.385 36.5C137.113 38.292 134.313 39.188 130.985 39.188C128.361 39.188 126.025 38.628 123.977 37.508C121.961 36.388 120.377 34.788 119.225 32.708C118.105 30.628 117.545 28.196 117.545 25.412Z" fill="url(#paint4_linear_709_620)"/>
<path d="M160.431 39.188C157.807 39.188 155.439 38.628 153.327 37.508C151.247 36.388 149.599 34.788 148.383 32.708C147.199 30.628 146.607 28.196 146.607 25.412C146.607 22.66 147.215 20.244 148.431 18.164C149.647 16.052 151.311 14.436 153.423 13.316C155.535 12.196 157.903 11.636 160.527 11.636C163.151 11.636 165.519 12.196 167.631 13.316C169.743 14.436 171.407 16.052 172.623 18.164C173.839 20.244 174.447 22.66 174.447 25.412C174.447 28.164 173.823 30.596 172.575 32.708C171.359 34.788 169.679 36.388 167.535 37.508C165.423 38.628 163.055 39.188 160.431 39.188ZM160.431 32.084C161.999 32.084 163.327 31.508 164.415 30.356C165.535 29.204 166.095 27.556 166.095 25.412C166.095 23.268 165.551 21.62 164.463 20.468C163.407 19.316 162.095 18.74 160.527 18.74C158.927 18.74 157.599 19.316 156.543 20.468C155.487 21.588 154.959 23.236 154.959 25.412C154.959 27.556 155.471 29.204 156.495 30.356C157.551 31.508 158.863 32.084 160.431 32.084Z" fill="url(#paint5_linear_709_620)"/>
<path d="M177.17 25.364C177.17 22.612 177.682 20.196 178.706 18.116C179.762 16.036 181.186 14.436 182.978 13.316C184.77 12.196 186.77 11.636 188.978 11.636C190.738 11.636 192.338 12.004 193.778 12.74C195.25 13.476 196.402 14.468 197.234 15.716V3.28401H205.442V38.804H197.234V34.964C196.466 36.244 195.362 37.268 193.922 38.036C192.514 38.804 190.866 39.188 188.978 39.188C186.77 39.188 184.77 38.628 182.978 37.508C181.186 36.356 179.762 34.74 178.706 32.66C177.682 30.548 177.17 28.116 177.17 25.364ZM197.234 25.412C197.234 23.364 196.658 21.748 195.506 20.564C194.386 19.38 193.01 18.788 191.378 18.788C189.746 18.788 188.354 19.38 187.202 20.564C186.082 21.716 185.522 23.316 185.522 25.364C185.522 27.412 186.082 29.044 187.202 30.26C188.354 31.444 189.746 32.036 191.378 32.036C193.01 32.036 194.386 31.444 195.506 30.26C196.658 29.076 197.234 27.46 197.234 25.412Z" fill="url(#paint6_linear_709_620)"/>
<path d="M236.628 24.98C236.628 25.748 236.58 26.548 236.484 27.38H217.908C218.036 29.044 218.564 30.324 219.492 31.22C220.452 32.084 221.62 32.516 222.996 32.516C225.044 32.516 226.468 31.652 227.268 29.924H236.004C235.556 31.684 234.74 33.268 233.556 34.676C232.404 36.084 230.948 37.188 229.188 37.988C227.428 38.788 225.46 39.188 223.284 39.188C220.66 39.188 218.324 38.628 216.276 37.508C214.228 36.388 212.628 34.788 211.476 32.708C210.324 30.628 209.748 28.196 209.748 25.412C209.748 22.628 210.308 20.196 211.428 18.116C212.58 16.036 214.18 14.436 216.228 13.316C218.276 12.196 220.628 11.636 223.284 11.636C225.876 11.636 228.18 12.18 230.196 13.268C232.212 14.356 233.78 15.908 234.9 17.924C236.052 19.94 236.628 22.292 236.628 24.98ZM228.228 22.82C228.228 21.412 227.748 20.292 226.788 19.46C225.828 18.628 224.628 18.212 223.188 18.212C221.812 18.212 220.644 18.612 219.684 19.412C218.756 20.212 218.18 21.348 217.956 22.82H228.228Z" fill="url(#paint7_linear_709_620)"/>
<defs>
<linearGradient id="paint0_linear_709_620" x1="118.689" y1="0.355938" x2="181.652" y2="44.7239" gradientUnits="userSpaceOnUse">
<stop stop-color="#868F96"/>
<stop offset="1" stop-color="#596164"/>
</linearGradient>
<linearGradient id="paint1_linear_709_620" x1="118.689" y1="0.355938" x2="181.652" y2="44.7239" gradientUnits="userSpaceOnUse">
<stop stop-color="#868F96"/>
<stop offset="1" stop-color="#596164"/>
</linearGradient>
<linearGradient id="paint2_linear_709_620" x1="118.689" y1="0.355938" x2="181.652" y2="44.7239" gradientUnits="userSpaceOnUse">
<stop stop-color="#868F96"/>
<stop offset="1" stop-color="#596164"/>
</linearGradient>
<linearGradient id="paint3_linear_709_620" x1="118.689" y1="0.355938" x2="181.652" y2="44.7239" gradientUnits="userSpaceOnUse">
<stop stop-color="#868F96"/>
<stop offset="1" stop-color="#596164"/>
</linearGradient>
<linearGradient id="paint4_linear_709_620" x1="118.689" y1="0.355938" x2="181.652" y2="44.7239" gradientUnits="userSpaceOnUse">
<stop stop-color="#868F96"/>
<stop offset="1" stop-color="#596164"/>
</linearGradient>
<linearGradient id="paint5_linear_709_620" x1="118.689" y1="0.355938" x2="181.652" y2="44.7239" gradientUnits="userSpaceOnUse">
<stop stop-color="#868F96"/>
<stop offset="1" stop-color="#596164"/>
</linearGradient>
<linearGradient id="paint6_linear_709_620" x1="118.689" y1="0.355938" x2="181.652" y2="44.7239" gradientUnits="userSpaceOnUse">
<stop stop-color="#868F96"/>
<stop offset="1" stop-color="#596164"/>
</linearGradient>
<linearGradient id="paint7_linear_709_620" x1="118.689" y1="0.355938" x2="181.652" y2="44.7239" gradientUnits="userSpaceOnUse">
<stop stop-color="#868F96"/>
<stop offset="1" stop-color="#596164"/>
</linearGradient>
</defs>
</svg>
