<svg width="285" height="35" viewBox="0 0 285 35" fill="none" xmlns="http://www.w3.org/2000/svg">
<path d="M0.244995 14.8C0.244995 12.6027 0.735662 10.64 1.717 8.91199C2.71966 7.16265 4.07433 5.80799 5.781 4.84799C7.509 3.86665 9.43966 3.37599 11.573 3.37599C14.069 3.37599 16.2557 4.01599 18.133 5.29599C20.0103 6.57599 21.3223 8.34665 22.069 10.608H16.917C16.405 9.54132 15.6797 8.74132 14.741 8.20799C13.8237 7.67465 12.757 7.40799 11.541 7.40799C10.2397 7.40799 9.077 7.71732 8.053 8.33599C7.05033 8.93332 6.261 9.78665 5.685 10.896C5.13033 12.0053 4.853 13.3067 4.853 14.8C4.853 16.272 5.13033 17.5733 5.685 18.704C6.261 19.8133 7.05033 20.6773 8.053 21.296C9.077 21.8933 10.2397 22.192 11.541 22.192C12.757 22.192 13.8237 21.9253 14.741 21.392C15.6797 20.8373 16.405 20.0267 16.917 18.96H22.069C21.3223 21.2427 20.0103 23.024 18.133 24.304C16.277 25.5627 14.0903 26.192 11.573 26.192C9.43966 26.192 7.509 25.712 5.781 24.752C4.07433 23.7707 2.71966 22.416 1.717 20.688C0.735662 18.96 0.244995 16.9973 0.244995 14.8Z" fill="#141414"/>
<path d="M33.7675 26.288C32.0608 26.288 30.5248 25.9147 29.1595 25.168C27.7942 24.4 26.7168 23.3227 25.9275 21.936C25.1595 20.5493 24.7755 18.9493 24.7755 17.136C24.7755 15.3227 25.1702 13.7227 25.9595 12.336C26.7702 10.9493 27.8688 9.88265 29.2555 9.13599C30.6422 8.36799 32.1888 7.98399 33.8955 7.98399C35.6022 7.98399 37.1488 8.36799 38.5355 9.13599C39.9222 9.88265 41.0102 10.9493 41.7995 12.336C42.6102 13.7227 43.0155 15.3227 43.0155 17.136C43.0155 18.9493 42.5995 20.5493 41.7675 21.936C40.9568 23.3227 39.8475 24.4 38.4395 25.168C37.0528 25.9147 35.4955 26.288 33.7675 26.288ZM33.7675 22.384C34.5782 22.384 35.3355 22.192 36.0395 21.808C36.7648 21.4027 37.3408 20.8053 37.7675 20.016C38.1942 19.2267 38.4075 18.2667 38.4075 17.136C38.4075 15.4507 37.9595 14.16 37.0635 13.264C36.1888 12.3467 35.1115 11.888 33.8315 11.888C32.5515 11.888 31.4742 12.3467 30.5995 13.264C29.7462 14.16 29.3195 15.4507 29.3195 17.136C29.3195 18.8213 29.7355 20.1227 30.5675 21.04C31.4208 21.936 32.4875 22.384 33.7675 22.384Z" fill="#141414"/>
<path d="M68.3177 8.01599C70.4937 8.01599 72.2431 8.68799 73.5658 10.032C74.9097 11.3547 75.5817 13.2107 75.5817 15.6V26H71.1017V16.208C71.1017 14.8213 70.7497 13.7653 70.0457 13.04C69.3417 12.2933 68.3817 11.92 67.1657 11.92C65.9497 11.92 64.9791 12.2933 64.2537 13.04C63.5497 13.7653 63.1977 14.8213 63.1977 16.208V26H58.7177V16.208C58.7177 14.8213 58.3657 13.7653 57.6617 13.04C56.9577 12.2933 55.9977 11.92 54.7817 11.92C53.5444 11.92 52.5631 12.2933 51.8377 13.04C51.1337 13.7653 50.7817 14.8213 50.7817 16.208V26H46.3017V8.27199H50.7817V10.416C51.3577 9.66932 52.0937 9.08265 52.9897 8.65599C53.9071 8.22932 54.9097 8.01599 55.9977 8.01599C57.3844 8.01599 58.6217 8.31465 59.7097 8.91199C60.7977 9.48799 61.6404 10.32 62.2377 11.408C62.8137 10.384 63.6457 9.56265 64.7337 8.94399C65.8431 8.32532 67.0377 8.01599 68.3177 8.01599Z" fill="#141414"/>
<path d="M84.313 10.832C84.889 10.0213 85.6783 9.34932 86.681 8.81599C87.705 8.26132 88.8677 7.98399 90.169 7.98399C91.6837 7.98399 93.049 8.35732 94.265 9.10399C95.5023 9.85065 96.473 10.9173 97.177 12.304C97.9023 13.6693 98.265 15.2587 98.265 17.072C98.265 18.8853 97.9023 20.496 97.177 21.904C96.473 23.2907 95.5023 24.368 94.265 25.136C93.049 25.904 91.6837 26.288 90.169 26.288C88.8677 26.288 87.7157 26.0213 86.713 25.488C85.7317 24.9547 84.9317 24.2827 84.313 23.472V34.448H79.833V8.27199H84.313V10.832ZM93.689 17.072C93.689 16.0053 93.465 15.088 93.017 14.32C92.5903 13.5307 92.0143 12.9333 91.289 12.528C90.585 12.1227 89.817 11.92 88.985 11.92C88.1743 11.92 87.4063 12.1333 86.681 12.56C85.977 12.9653 85.401 13.5627 84.953 14.352C84.5263 15.1413 84.313 16.0693 84.313 17.136C84.313 18.2027 84.5263 19.1307 84.953 19.92C85.401 20.7093 85.977 21.3173 86.681 21.744C87.4063 22.1493 88.1743 22.352 88.985 22.352C89.817 22.352 90.585 22.1387 91.289 21.712C92.0143 21.2853 92.5903 20.6773 93.017 19.888C93.465 19.0987 93.689 18.16 93.689 17.072Z" fill="#141414"/>
<path d="M106 11.024C106.576 10.0853 107.323 9.34932 108.24 8.81599C109.179 8.28265 110.246 8.01599 111.44 8.01599V12.72H110.256C108.848 12.72 107.782 13.0507 107.056 13.712C106.352 14.3733 106 15.5253 106 17.168V26H101.52V8.27199H106V11.024Z" fill="#141414"/>
<path d="M113.306 17.072C113.306 15.28 113.658 13.6907 114.362 12.304C115.087 10.9173 116.058 9.85065 117.274 9.10399C118.511 8.35732 119.887 7.98399 121.402 7.98399C122.725 7.98399 123.877 8.25065 124.858 8.78399C125.861 9.31732 126.661 9.98932 127.258 10.8V8.27199H131.77V26H127.258V23.408C126.682 24.24 125.882 24.9333 124.858 25.488C123.855 26.0213 122.693 26.288 121.37 26.288C119.877 26.288 118.511 25.904 117.274 25.136C116.058 24.368 115.087 23.2907 114.362 21.904C113.658 20.496 113.306 18.8853 113.306 17.072ZM127.258 17.136C127.258 16.048 127.045 15.12 126.618 14.352C126.191 13.5627 125.615 12.9653 124.89 12.56C124.165 12.1333 123.386 11.92 122.554 11.92C121.722 11.92 120.954 12.1227 120.25 12.528C119.546 12.9333 118.97 13.5307 118.522 14.32C118.095 15.088 117.882 16.0053 117.882 17.072C117.882 18.1387 118.095 19.0773 118.522 19.888C118.97 20.6773 119.546 21.2853 120.25 21.712C120.975 22.1387 121.743 22.352 122.554 22.352C123.386 22.352 124.165 22.1493 124.89 21.744C125.615 21.3173 126.191 20.72 126.618 19.952C127.045 19.1627 127.258 18.224 127.258 17.136Z" fill="#141414"/>
<path d="M140.625 11.024C141.201 10.0853 141.948 9.34932 142.865 8.81599C143.804 8.28265 144.871 8.01599 146.065 8.01599V12.72H144.882C143.474 12.72 142.407 13.0507 141.681 13.712C140.977 14.3733 140.625 15.5253 140.625 17.168V26H136.145V8.27199H140.625V11.024Z" fill="#141414"/>
<path d="M155.867 26.288C154.416 26.288 153.115 26.032 151.963 25.52C150.811 24.9867 149.894 24.272 149.211 23.376C148.55 22.48 148.187 21.488 148.123 20.4H152.635C152.72 21.0827 153.051 21.648 153.627 22.096C154.224 22.544 154.96 22.768 155.835 22.768C156.688 22.768 157.35 22.5973 157.819 22.256C158.31 21.9147 158.555 21.4773 158.555 20.944C158.555 20.368 158.256 19.9413 157.659 19.664C157.083 19.3653 156.155 19.0453 154.875 18.704C153.552 18.384 152.464 18.0533 151.611 17.712C150.779 17.3707 150.054 16.848 149.435 16.144C148.838 15.44 148.539 14.4907 148.539 13.296C148.539 12.3147 148.816 11.4187 149.371 10.608C149.947 9.79732 150.758 9.15732 151.803 8.68799C152.87 8.21865 154.118 7.98399 155.547 7.98399C157.659 7.98399 159.344 8.51732 160.603 9.58399C161.862 10.6293 162.555 12.048 162.683 13.84H158.395C158.331 13.136 158.032 12.5813 157.499 12.176C156.987 11.7493 156.294 11.536 155.419 11.536C154.608 11.536 153.979 11.6853 153.531 11.984C153.104 12.2827 152.891 12.6987 152.891 13.232C152.891 13.8293 153.19 14.288 153.787 14.608C154.384 14.9067 155.312 15.216 156.571 15.536C157.851 15.856 158.907 16.1867 159.739 16.528C160.571 16.8693 161.286 17.4027 161.883 18.128C162.502 18.832 162.822 19.7707 162.843 20.944C162.843 21.968 162.555 22.8853 161.979 23.696C161.424 24.5067 160.614 25.1467 159.547 25.616C158.502 26.064 157.275 26.288 155.867 26.288Z" fill="#141414"/>
<path d="M168.792 6.15999C168.003 6.15999 167.342 5.91466 166.809 5.42399C166.297 4.91199 166.04 4.28265 166.04 3.53599C166.04 2.78932 166.297 2.17065 166.809 1.67999C167.342 1.16799 168.003 0.911987 168.792 0.911987C169.582 0.911987 170.232 1.16799 170.744 1.67999C171.278 2.17065 171.544 2.78932 171.544 3.53599C171.544 4.28265 171.278 4.91199 170.744 5.42399C170.232 5.91466 169.582 6.15999 168.792 6.15999ZM171 8.27199V26H166.52V8.27199H171Z" fill="#141414"/>
<path d="M180.643 11.952V20.528C180.643 21.1253 180.781 21.5627 181.059 21.84C181.357 22.096 181.848 22.224 182.531 22.224H184.611V26H181.795C178.019 26 176.131 24.1653 176.131 20.496V11.952H174.019V8.27199H176.131V3.88799H180.643V8.27199H184.611V11.952H180.643Z" fill="#141414"/>
<path d="M204.313 16.752C204.313 17.392 204.27 17.968 204.185 18.48H191.225C191.332 19.76 191.78 20.7627 192.569 21.488C193.358 22.2133 194.329 22.576 195.481 22.576C197.145 22.576 198.329 21.8613 199.033 20.432H203.865C203.353 22.1387 202.372 23.5467 200.921 24.656C199.47 25.744 197.689 26.288 195.577 26.288C193.87 26.288 192.334 25.9147 190.969 25.168C189.625 24.4 188.569 23.3227 187.801 21.936C187.054 20.5493 186.681 18.9493 186.681 17.136C186.681 15.3013 187.054 13.6907 187.801 12.304C188.548 10.9173 189.593 9.85065 190.937 9.10399C192.281 8.35732 193.828 7.98399 195.577 7.98399C197.262 7.98399 198.766 8.34665 200.089 9.07199C201.433 9.79732 202.468 10.832 203.193 12.176C203.94 13.4987 204.313 15.024 204.313 16.752ZM199.673 15.472C199.652 14.32 199.236 13.4027 198.425 12.72C197.614 12.016 196.622 11.664 195.449 11.664C194.34 11.664 193.401 12.0053 192.633 12.688C191.886 13.3493 191.428 14.2773 191.257 15.472H199.673Z" fill="#141414"/>
<path d="M209.567 26.224C208.756 26.224 208.084 25.9787 207.551 25.488C207.039 24.976 206.783 24.3467 206.783 23.6C206.783 22.8533 207.039 22.2347 207.551 21.744C208.084 21.232 208.756 20.976 209.567 20.976C210.356 20.976 211.007 21.232 211.519 21.744C212.031 22.2347 212.287 22.8533 212.287 23.6C212.287 24.3467 212.031 24.976 211.519 25.488C211.007 25.9787 210.356 26.224 209.567 26.224Z" fill="#141414"/>
<path d="M214.743 17.136C214.743 15.3013 215.117 13.7013 215.863 12.336C216.61 10.9493 217.645 9.88265 218.967 9.13599C220.29 8.36799 221.805 7.98399 223.511 7.98399C225.709 7.98399 227.522 8.53865 228.951 9.64799C230.402 10.736 231.373 12.272 231.863 14.256H227.031C226.775 13.488 226.338 12.8907 225.719 12.464C225.122 12.016 224.375 11.792 223.479 11.792C222.199 11.792 221.186 12.2613 220.439 13.2C219.693 14.1173 219.319 15.4293 219.319 17.136C219.319 18.8213 219.693 20.1333 220.439 21.072C221.186 21.9893 222.199 22.448 223.479 22.448C225.293 22.448 226.477 21.6373 227.031 20.016H231.863C231.373 21.936 230.402 23.4613 228.951 24.592C227.501 25.7227 225.687 26.288 223.511 26.288C221.805 26.288 220.29 25.9147 218.967 25.168C217.645 24.4 216.61 23.3333 215.863 21.968C215.117 20.5813 214.743 18.9707 214.743 17.136Z" fill="#141414"/>
<path d="M243.018 26.288C241.311 26.288 239.775 25.9147 238.41 25.168C237.044 24.4 235.967 23.3227 235.177 21.936C234.409 20.5493 234.025 18.9493 234.025 17.136C234.025 15.3227 234.42 13.7227 235.209 12.336C236.02 10.9493 237.119 9.88265 238.505 9.13599C239.892 8.36799 241.439 7.98399 243.145 7.98399C244.852 7.98399 246.399 8.36799 247.785 9.13599C249.172 9.88265 250.26 10.9493 251.049 12.336C251.86 13.7227 252.266 15.3227 252.266 17.136C252.266 18.9493 251.85 20.5493 251.018 21.936C250.207 23.3227 249.097 24.4 247.689 25.168C246.303 25.9147 244.746 26.288 243.018 26.288ZM243.018 22.384C243.828 22.384 244.585 22.192 245.289 21.808C246.015 21.4027 246.591 20.8053 247.018 20.016C247.444 19.2267 247.658 18.2667 247.658 17.136C247.658 15.4507 247.209 14.16 246.313 13.264C245.439 12.3467 244.361 11.888 243.081 11.888C241.801 11.888 240.724 12.3467 239.85 13.264C238.996 14.16 238.569 15.4507 238.569 17.136C238.569 18.8213 238.985 20.1227 239.817 21.04C240.671 21.936 241.738 22.384 243.018 22.384Z" fill="#141414"/>
<path d="M277.568 8.01599C279.744 8.01599 281.493 8.68799 282.816 10.032C284.16 11.3547 284.832 13.2107 284.832 15.6V26H280.352V16.208C280.352 14.8213 280 13.7653 279.296 13.04C278.592 12.2933 277.632 11.92 276.416 11.92C275.2 11.92 274.229 12.2933 273.504 13.04C272.8 13.7653 272.448 14.8213 272.448 16.208V26H267.968V16.208C267.968 14.8213 267.616 13.7653 266.912 13.04C266.208 12.2933 265.248 11.92 264.032 11.92C262.794 11.92 261.813 12.2933 261.088 13.04C260.384 13.7653 260.032 14.8213 260.032 16.208V26H255.552V8.27199H260.032V10.416C260.608 9.66932 261.344 9.08265 262.24 8.65599C263.157 8.22932 264.16 8.01599 265.248 8.01599C266.634 8.01599 267.872 8.31465 268.96 8.91199C270.048 9.48799 270.89 10.32 271.488 11.408C272.064 10.384 272.896 9.56265 273.984 8.94399C275.093 8.32532 276.288 8.01599 277.568 8.01599Z" fill="#141414"/>
</svg>
